<?xml version="1.0" standalone="no"?>
<!DOCTYPE svg PUBLIC "-//W3C//DTD SVG 20010904//EN"
 "http://www.w3.org/TR/2001/REC-SVG-20010904/DTD/svg10.dtd">
<svg version="1.0" xmlns="http://www.w3.org/2000/svg"
 width="955.000000pt" height="735.000000pt" viewBox="0 0 955.000000 735.000000"
 preserveAspectRatio="xMidYMid meet">
  
   <style>
        path {
            fill: black;
        }
        @media (prefers-color-scheme: dark) {
            path { fill: white; }
        }
    </style>
  
<g transform="translate(0.000000,735.000000) scale(0.100000,-0.100000)"
fill="#000000" stroke="none">
<path d="M5792 7148 l3 -93 44 -3 c24 -2 49 2 54 7 8 8 -1 11 -31 11 l-42 0 0
85 c0 70 -3 85 -15 85 -13 0 -15 -15 -13 -92z"/>
<path d="M5595 6910 c-42 -13 -109 -72 -125 -110 -13 -32 -30 -40 -30 -15 0
25 -83 101 -125 115 -52 17 -127 8 -170 -21 -47 -31 -90 -97 -105 -160 l-12
-50 -85 3 -85 3 -14 40 c-35 105 -145 100 -175 -9 l-10 -36 -286 0 c-257 0
-288 2 -305 17 -19 17 -21 17 -50 0 -27 -16 -89 -17 -804 -17 l-774 0 0 -65 0
-65 -50 0 -50 0 50 -100 c42 -84 50 -109 50 -155 l0 -55 -55 0 c-77 0 -69 -17
11 -22 83 -5 184 2 184 13 0 4 -24 9 -52 11 l-53 3 -3 52 c-3 45 3 63 48 150
l51 98 -51 3 -51 3 3 52 3 52 160 0 160 0 3 -207 2 -208 -50 0 c-70 0 -63 -17
10 -22 78 -6 180 2 180 13 0 5 -25 9 -55 9 l-55 0 2 208 3 207 576 2 576 3 21
-23 c22 -24 22 -24 20 -448 l-3 -424 -78 -3 c-56 -2 -77 -6 -74 -15 2 -8 32
-13 81 -15 43 -2 76 -6 74 -10 -2 -4 -34 -67 -71 -139 -37 -73 -67 -135 -67
-137 0 -3 30 -6 68 -8 l67 -3 3 -379 c2 -342 1 -381 -14 -398 -16 -17 -46 -18
-601 -18 l-583 0 0 755 0 755 -376 0 c-296 0 -375 -3 -372 -12 4 -10 87 -14
361 -16 l357 -2 0 -740 0 -740 -1135 0 -1135 0 0 339 0 339 47 7 c167 25 309
174 321 336 2 37 -1 90 -8 118 -17 70 -77 160 -138 204 -54 40 -147 77 -194
77 l-28 0 0 300 0 300 772 -2 773 -3 0 -205 0 -205 -52 -3 c-29 -2 -53 -7 -53
-11 0 -11 101 -18 184 -13 80 5 88 22 11 22 l-55 0 0 220 0 220 -805 0 -805 0
-2 -307 -3 -306 -61 -13 c-126 -25 -229 -106 -280 -219 -37 -80 -39 -191 -5
-277 45 -116 160 -206 293 -232 l58 -11 0 -352 0 -353 1150 0 1150 0 0 -460 0
-460 -419 0 c-231 0 -426 -3 -435 -6 -14 -5 -16 -61 -16 -525 l0 -519 -182 -2
-183 -3 0 -660 0 -660 380 0 380 0 3 183 c3 194 3 195 52 167 33 -19 50 -19
50 0 0 13 46 15 355 15 l355 0 0 -520 0 -520 -320 0 -320 0 2 -272 3 -273 655
0 655 0 3 273 2 272 -325 0 -325 0 -2 533 -3 532 -367 3 c-360 2 -368 3 -368
22 0 25 -2 25 -50 0 -22 -11 -42 -20 -45 -20 -3 0 -5 119 -5 265 0 146 2 265
5 265 3 0 24 -9 46 -21 l41 -20 5 20 c5 21 9 21 540 21 l535 0 151 -88 c416
-242 625 -362 631 -362 3 0 6 63 6 140 0 77 2 140 5 140 3 0 24 -9 45 -20 l40
-20 0 20 c0 20 5 20 410 20 l410 0 0 -180 0 -180 920 0 920 0 0 180 c0 118 4
180 10 180 6 0 29 -9 50 -20 l40 -20 0 20 c0 20 6 20 270 20 l270 0 6 -27 c26
-118 79 -200 164 -251 73 -43 120 -55 205 -50 160 8 296 128 321 281 5 30 10
37 23 31 39 -16 51 -16 51 0 0 14 15 16 105 16 87 0 105 3 105 15 0 12 -18 15
-101 15 -92 0 -101 2 -106 20 -5 18 -7 18 -34 5 -15 -8 -30 -15 -32 -15 -3 0
-7 19 -11 42 -10 60 -63 154 -110 194 -50 43 -115 74 -166 81 -43 6 -47 14
-25 53 20 34 18 47 -5 53 -20 5 -20 12 -18 474 l3 468 515 5 515 5 3 1583 c1
1113 -1 1589 -9 1603 -10 20 -16 20 -960 13 -900 -7 -950 -6 -969 11 -20 18
-70 15 -70 -5 0 -6 -76 -10 -199 -10 l-199 0 -7 38 c-10 57 -56 132 -99 163
-46 34 -90 44 -152 34 -37 -5 -56 -16 -99 -58 -29 -29 -55 -59 -59 -67 -5 -13
-7 -13 -12 -1 -16 35 -89 101 -130 117 -86 33 -185 -2 -240 -86 l-27 -40 -28
45 c-51 81 -150 121 -234 95z m133 -39 c20 -10 44 -27 53 -37 30 -34 59 -103
59 -139 0 -51 26 -46 33 6 13 96 98 179 185 179 89 0 167 -76 186 -182 4 -21
10 -38 15 -38 4 0 13 24 20 54 13 59 63 126 112 151 104 54 239 -36 255 -171
l6 -49 199 3 c171 3 203 1 224 -12 l25 -16 0 -410 0 -410 -160 0 c-136 0 -160
-2 -160 -15 0 -13 44 -15 335 -15 291 0 335 2 335 15 0 13 -24 15 -160 15
l-160 0 0 406 c0 404 0 407 22 425 20 18 48 19 565 19 l543 0 0 -230 0 -229
-80 -47 c-44 -25 -80 -49 -80 -53 0 -4 70 -47 155 -96 85 -48 154 -89 153 -90
-2 -2 -64 -38 -138 -80 -74 -42 -145 -84 -158 -92 -23 -14 -19 -17 129 -101
83 -48 152 -92 152 -97 0 -6 -66 -48 -146 -95 -81 -46 -146 -89 -144 -93 2 -8
61 -43 261 -157 l48 -27 -76 -44 -76 -43 0 -211 c0 -151 -3 -214 -12 -223 -9
-9 -144 -12 -547 -12 -483 0 -536 2 -553 17 -17 15 -18 44 -18 490 l0 473 160
0 c136 0 160 2 160 15 0 13 -41 15 -332 13 -254 -2 -332 -6 -336 -15 -3 -10
33 -13 157 -13 l161 0 0 -472 c-1 -378 -3 -477 -14 -490 -12 -17 -80 -18
-1165 -18 l-1151 0 0 948 0 949 24 13 c22 11 47 49 60 94 6 17 15 18 105 14
l99 -4 6 44 c20 150 156 234 271 169 47 -27 94 -99 102 -156 9 -65 23 -54 37
30 4 20 20 55 36 77 55 76 143 101 218 63z m-953 -107 c18 -7 45 -54 45 -79 0
-12 -13 -15 -65 -15 l-65 0 6 28 c3 15 17 37 31 50 27 25 26 24 48 16z m-105
-153 c6 -22 23 -51 40 -65 l30 -25 0 -945 0 -946 -330 0 -330 0 -15 23 c-13
21 -15 75 -13 398 l3 374 72 3 72 3 -69 137 c-39 75 -70 140 -70 145 0 4 34 7
75 7 59 0 75 3 75 15 0 11 -18 15 -77 17 l-78 3 -3 424 c-2 424 -2 424 20 448
l21 23 283 0 283 0 11 -39z m150 24 c0 -47 -46 -86 -85 -71 -17 6 -46 66 -39
78 3 5 32 8 65 8 45 0 59 -3 59 -15z m4248 -1562 l-3 -1578 -517 -3 -518 -2 0
-485 c0 -478 0 -485 -20 -485 -24 0 -24 -3 -4 -41 19 -38 12 -59 -20 -59 -47
0 -135 -41 -185 -86 -51 -46 -111 -148 -111 -190 0 -56 10 -54 -281 -54 -263
0 -269 0 -269 20 0 19 -2 20 -27 7 -16 -8 -38 -18 -50 -21 l-23 -7 0 180 0
181 -920 0 -920 0 -2 -177 -3 -178 -407 -3 c-404 -2 -408 -2 -408 18 l0 20
-39 -19 c-21 -11 -41 -17 -45 -14 -7 8 -8 323 -1 323 3 0 24 -9 45 -20 l40
-20 0 20 c0 19 6 20 189 20 163 0 190 2 195 16 3 9 6 189 6 400 l0 384 185 0
185 0 0 350 0 350 -182 2 -183 3 -3 338 -2 337 1154 0 c759 0 1157 -3 1161
-10 3 -5 19 -10 35 -10 16 0 32 5 35 10 4 6 195 10 541 10 451 0 538 -2 550
-14 11 -11 14 -45 14 -145 l0 -131 -160 0 c-92 0 -160 -4 -160 -9 0 -6 72 -11
166 -13 245 -5 504 2 504 13 0 5 -68 9 -160 9 l-160 0 0 129 c0 102 3 131 15
141 19 16 19 44 0 64 -13 13 -15 47 -13 217 l3 202 82 46 c45 25 82 49 83 52
0 4 -70 46 -155 95 -85 48 -155 90 -155 93 1 3 69 45 153 92 84 47 151 89 150
94 0 5 -69 47 -152 94 -83 47 -151 88 -151 91 0 3 68 43 150 90 83 47 151 90
151 95 0 6 -64 46 -141 91 -78 45 -145 85 -150 90 -5 5 20 26 60 49 l70 40 0
238 0 237 390 0 390 0 -2 -1577z m-8409 921 c80 -36 133 -84 171 -155 45 -86
53 -185 20 -274 -33 -89 -122 -174 -214 -205 -182 -60 -375 19 -458 188 -32
65 -32 195 -1 264 81 179 303 263 482 182z m3359 -1411 c29 -17 31 -17 50 0
17 15 50 17 345 17 l327 0 0 -340 0 -340 -185 0 -185 0 0 -350 0 -350 185 0
185 0 0 -385 0 -385 -180 0 c-174 0 -180 1 -180 20 0 20 0 20 -39 1 -21 -11
-41 -17 -45 -14 -3 4 -6 62 -6 131 0 110 -2 123 -16 118 -14 -5 -144 -80 -394
-226 -36 -21 -136 -79 -222 -129 l-157 -91 -536 0 c-528 0 -535 0 -535 20 0
11 -2 20 -5 20 -3 0 -23 -9 -45 -20 -22 -11 -42 -20 -44 -20 -3 0 -7 82 -8
183 l-3 182 -182 3 -183 2 0 510 0 510 423 0 c316 0 426 3 435 12 9 9 12 128
12 475 l0 463 579 0 c530 0 582 -1 609 -17z m1092 -1008 l0 -325 -355 0 -355
0 0 325 0 325 355 0 355 0 0 -325z m-840 -1330 c0 -281 -3 -415 -10 -415 -6 0
-113 59 -238 132 -125 72 -281 162 -346 199 -65 37 -123 72 -129 78 -11 11
-15 8 178 119 77 44 226 130 330 191 105 60 196 110 203 111 9 0 12 -89 12
-415z m-1970 -280 l0 -635 -355 0 -355 0 0 635 0 635 355 0 355 0 0 -635z
m4710 110 l0 -345 -892 2 -893 3 -3 330 c-1 181 0 336 3 342 3 10 189 13 895
13 l890 0 0 -345z m1130 303 c14 -5 45 -21 69 -35 l43 -25 -108 -109 -109
-109 -108 107 c-119 120 -117 111 -34 154 72 37 175 44 247 17z m-138 -294 c4
-6 -38 -55 -97 -114 -102 -102 -105 -104 -124 -86 -22 20 -54 98 -65 159 -10
53 9 132 45 196 l31 53 101 -98 c56 -55 105 -104 109 -110z m295 173 c71 -104
71 -273 -2 -362 l-24 -30 -108 107 -108 108 105 105 c58 58 107 105 110 105 3
0 15 -15 27 -33z m-153 -311 l107 -104 -33 -25 c-99 -75 -267 -75 -367 0 l-33
26 103 103 c57 57 107 104 110 104 4 0 55 -47 113 -104z m-4354 -1591 l0 -245
-630 0 -630 0 0 245 0 245 630 0 630 0 0 -245z"/>
<path d="M6419 5771 c-47 -48 -35 -121 26 -147 36 -15 90 -10 79 7 -3 6 -14 7
-24 4 -20 -6 -59 10 -72 29 -4 6 -8 27 -8 47 0 46 25 69 74 69 22 0 35 4 31
10 -3 6 -22 10 -41 10 -26 0 -44 -8 -65 -29z"/>
<path d="M8620 5700 c0 -53 4 -90 10 -90 6 0 10 15 10 34 0 19 4 38 10 41 18
11 47 -14 53 -45 4 -17 13 -30 21 -30 12 0 13 6 4 33 -6 17 -14 36 -19 41 -4
5 -1 15 7 23 20 21 17 60 -5 73 -11 5 -36 10 -55 10 l-36 0 0 -90z m84 55 c8
-21 -3 -43 -25 -50 -27 -9 -39 2 -39 36 0 25 4 29 29 29 16 0 31 -6 35 -15z"/>
<path d="M8050 4195 c0 -13 32 -15 225 -15 193 0 225 2 225 15 0 13 -32 15
-225 15 -193 0 -225 -2 -225 -15z"/>
<path d="M8157 4094 c-18 -18 15 -24 124 -24 99 0 119 3 119 15 0 12 -20 15
-118 15 -65 0 -122 -3 -125 -6z"/>
<path d="M310 5759 c0 -7 11 -51 26 -97 33 -109 47 -107 87 11 16 49 27 91 24
94 -12 12 -25 -10 -42 -72 -9 -36 -20 -67 -24 -70 -4 -2 -17 27 -30 65 -20 64
-41 98 -41 69z"/>
<path d="M480 5676 c0 -57 4 -96 10 -96 6 0 10 36 10 89 0 50 -4 93 -10 96 -6
4 -10 -28 -10 -89z"/>
<path d="M547 5763 c-4 -3 -7 -46 -7 -95 0 -72 3 -88 15 -88 12 0 15 15 15 73
l0 72 43 -72 c23 -40 48 -73 55 -73 9 0 12 26 12 97 0 109 -17 119 -22 13 l-3
-65 -44 73 c-42 70 -51 79 -64 65z"/>
<path d="M4632 3568 c2 -62 7 -93 16 -96 8 -2 12 10 12 42 0 38 3 46 18 46 23
0 43 -16 71 -57 23 -33 41 -43 41 -21 0 6 -11 26 -26 45 -14 18 -20 33 -15 33
6 0 18 11 27 25 15 23 15 27 0 50 -15 22 -23 25 -82 25 l-65 0 3 -92z m118 57
c19 -23 -5 -45 -51 -45 -37 0 -39 2 -39 30 0 28 2 30 39 30 22 0 44 -6 51 -15z"/>
<path d="M4820 3650 c0 -5 5 -10 10 -10 6 0 10 5 10 10 0 6 -4 10 -10 10 -5 0
-10 -4 -10 -10z"/>
<path d="M4820 3540 c0 -40 4 -70 10 -70 6 0 10 30 10 70 0 40 -4 70 -10 70
-6 0 -10 -30 -10 -70z"/>
<path d="M4127 2503 c-4 -3 -7 -17 -7 -30 0 -18 -5 -23 -25 -23 -14 0 -25 -4
-25 -10 0 -5 11 -10 25 -10 20 0 25 -5 25 -25 0 -16 6 -25 15 -25 9 0 15 9 15
25 0 20 5 25 25 25 14 0 25 5 25 10 0 6 -11 10 -25 10 -21 0 -25 5 -25 30 0
29 -9 38 -23 23z"/>
<path d="M4100 2070 c0 -5 18 -10 40 -10 22 0 40 5 40 10 0 6 -18 10 -40 10
-22 0 -40 -4 -40 -10z"/>
<path d="M2060 2245 c0 -78 3 -95 15 -95 11 0 15 11 15 40 0 37 2 40 28 40 20
0 34 -10 55 -40 35 -50 68 -57 40 -9 -10 17 -23 35 -30 40 -8 7 -5 16 13 34
29 29 30 39 4 65 -16 16 -33 20 -80 20 l-60 0 0 -95z m125 40 c0 -17 -8 -20
-47 -23 -46 -3 -48 -2 -48 23 0 25 2 26 48 23 39 -3 47 -6 47 -23z"/>
<path d="M2082 1774 c-42 -29 -18 -77 46 -90 64 -13 70 -64 7 -64 -24 0 -39 6
-47 20 -17 27 -38 26 -31 -1 7 -27 65 -51 99 -43 14 4 32 17 41 30 14 22 14
26 0 48 -10 14 -33 28 -61 35 -35 9 -46 16 -46 31 0 31 49 39 71 12 20 -25 39
-29 39 -8 0 20 -39 46 -70 46 -14 0 -36 -7 -48 -16z"/>
<path d="M5623 2168 c-30 -15 -47 -60 -40 -111 7 -48 35 -77 77 -77 31 0 80
34 80 56 0 20 -15 17 -31 -5 -38 -53 -102 -23 -102 47 0 23 6 48 13 57 16 20
76 20 84 0 6 -16 36 -21 36 -6 0 16 -52 51 -74 50 -11 0 -31 -5 -43 -11z"/>
<path d="M6067 2163 c-4 -3 -7 -14 -7 -24 0 -9 -6 -20 -12 -23 -10 -5 -10 -7
0 -12 7 -3 12 -24 12 -49 0 -56 8 -75 31 -75 20 0 26 15 9 25 -15 9 -12 92 3
99 10 5 10 7 0 12 -7 3 -13 17 -13 30 0 23 -10 31 -23 17z"/>
<path d="M6360 2081 c0 -50 5 -93 10 -96 6 -4 10 28 10 89 0 57 -4 96 -10 96
-6 0 -10 -36 -10 -89z"/>
<path d="M6420 2081 c0 -50 5 -93 10 -96 6 -4 10 28 10 89 0 57 -4 96 -10 96
-6 0 -10 -36 -10 -89z"/>
<path d="M5780 2110 c-43 -43 -13 -130 43 -130 30 0 55 27 63 67 5 26 1 37
-19 57 -31 31 -60 33 -87 6z m61 -10 c13 -7 19 -21 19 -45 0 -44 -27 -61 -58
-39 -26 18 -28 50 -5 76 19 21 19 21 44 8z"/>
<path d="M5937 2123 c-28 -4 -28 -5 -25 -71 4 -79 22 -90 26 -15 5 94 62 96
62 2 0 -27 5 -49 10 -49 6 0 10 27 10 60 0 48 -4 61 -19 70 -11 5 -23 9 -28 9
-4 -1 -21 -4 -36 -6z"/>
<path d="M6166 2121 c-4 -6 -13 -8 -21 -4 -12 4 -15 -7 -15 -60 0 -36 5 -69
10 -72 6 -4 10 12 10 40 0 56 14 87 37 78 10 -4 14 -2 11 7 -6 18 -24 24 -32
11z"/>
<path d="M6230 2110 c-43 -43 -13 -130 45 -130 62 0 89 90 39 129 -33 26 -58
27 -84 1z m80 -55 c0 -46 -31 -64 -60 -35 -11 11 -20 27 -20 35 0 8 9 24 20
35 29 29 60 11 60 -35z"/>
<path d="M6490 2110 c-42 -42 -13 -130 43 -130 30 0 62 24 53 39 -5 8 -13 7
-28 -3 -24 -17 -58 -5 -58 19 0 11 13 15 50 15 58 0 65 16 25 55 -29 30 -58
32 -85 5z m80 -30 c0 -6 -16 -10 -35 -10 -38 0 -46 13 -18 29 19 10 53 -2 53
-19z"/>
<path d="M6643 2123 c-21 -4 -23 -10 -23 -69 0 -50 3 -64 15 -64 11 0 15 12
15 49 0 33 5 53 17 62 9 8 18 13 20 12 1 -2 3 0 4 5 0 9 -19 11 -48 5z"/>
<path d="M7997 2264 c-20 -21 -5 -34 39 -34 38 0 45 3 42 18 -2 11 -14 18 -38
20 -20 2 -39 0 -43 -4z"/>
<path d="M8238 2113 c-2 -22 -9 -29 -30 -31 -16 -2 -28 -9 -28 -17 0 -8 12
-15 28 -17 21 -2 28 -9 30 -30 2 -16 9 -28 17 -28 8 0 15 12 17 28 2 21 9 28
31 30 15 2 27 9 27 17 0 8 -12 15 -27 17 -22 2 -29 9 -31 31 -2 15 -9 27 -17
27 -8 0 -15 -12 -17 -27z"/>
<path d="M2874 436 c-37 -16 -60 -71 -49 -114 18 -72 103 -99 144 -46 28 35
15 52 -14 19 -29 -30 -58 -32 -85 -5 -24 24 -26 77 -4 108 18 26 65 30 84 7
16 -19 30 -19 30 0 0 13 -48 46 -67 45 -4 -1 -22 -7 -39 -14z"/>
<path d="M3020 344 c0 -61 4 -93 10 -89 6 3 10 46 10 96 0 53 -4 89 -10 89 -6
0 -10 -39 -10 -96z"/>
<path d="M3350 344 c0 -72 3 -95 13 -92 6 3 14 20 17 39 l5 34 25 -37 c14 -21
31 -38 38 -38 17 0 16 5 -15 50 l-26 41 23 24 c30 32 6 34 -27 3 l-23 -21 0
46 c0 35 -4 47 -15 47 -12 0 -15 -17 -15 -96z"/>
<path d="M3093 385 c-39 -27 -38 -101 1 -127 20 -14 63 -8 79 10 24 26 22 87
-3 112 -24 24 -48 25 -77 5z m70 -36 c14 -23 0 -67 -24 -74 -38 -12 -61 31
-43 80 8 20 53 16 67 -6z"/>
<path d="M3235 375 c-27 -26 -31 -49 -15 -89 15 -41 90 -48 104 -9 10 25 -2
28 -25 8 -30 -28 -54 -9 -54 41 0 35 3 39 28 42 15 2 27 -1 27 -7 0 -6 7 -11
15 -11 22 0 18 17 -7 34 -31 22 -45 20 -73 -9z"/>
<path d="M2265 5838 c-34 -18 -45 -40 -45 -88 0 -56 16 -74 86 -95 58 -17 74
-19 74 -5 0 6 -9 10 -20 10 -11 0 -20 2 -20 5 0 3 9 14 20 25 14 14 20 33 20
63 -1 48 -15 72 -54 87 -33 12 -36 12 -61 -2z m75 -35 c39 -50 11 -123 -46
-123 -50 0 -73 91 -34 130 28 28 55 25 80 -7z"/>
<path d="M2438 5826 c-24 -18 -23 -29 2 -21 19 6 20 2 20 -69 0 -44 4 -76 10
-76 6 0 10 37 10 90 0 94 -6 104 -42 76z"/>
<path d="M2064 3917 c-10 -27 1 -170 14 -175 8 -2 12 9 12 37 l0 41 43 0 c31
0 49 6 62 20 23 26 13 68 -21 80 -37 15 -104 12 -110 -3z m111 -47 c0 -22 -5
-25 -42 -28 -42 -3 -43 -2 -43 28 0 30 1 31 43 28 37 -3 42 -6 42 -28z"/>
<path d="M2227 3924 c-4 -5 14 -82 39 -166 12 -39 32 -17 49 52 9 39 21 72 25
75 4 2 16 -28 27 -67 10 -39 24 -73 30 -75 7 -3 20 24 32 64 31 107 34 123 22
123 -6 0 -18 -26 -26 -57 -9 -32 -19 -65 -22 -73 -3 -8 -14 18 -25 58 -27 97
-46 95 -72 -7 -21 -81 -26 -79 -47 21 -10 47 -20 63 -32 52z"/>
<path d="M2487 3924 c-4 -4 -7 -47 -7 -96 0 -67 3 -89 13 -86 7 3 14 31 17 73
l5 69 23 -72 c13 -41 28 -72 35 -69 6 2 22 34 36 73 l26 69 3 -72 c4 -108 22
-89 22 23 0 84 -2 95 -17 92 -10 -2 -25 -29 -41 -76 -13 -40 -27 -70 -31 -67
-3 4 -15 36 -26 73 -19 62 -39 85 -58 66z"/>
<path d="M8640 2314 c0 -3 12 -44 26 -91 33 -109 47 -108 86 6 26 79 29 107 9
85 -5 -5 -19 -40 -31 -78 l-23 -69 -24 77 c-13 42 -28 76 -33 76 -6 0 -10 -3
-10 -6z"/>
<path d="M8747 2103 c-11 -10 -8 -161 3 -168 6 -4 10 10 10 34 0 37 2 41 25
41 18 0 33 -11 53 -40 15 -21 33 -39 40 -40 18 0 15 9 -12 45 -24 31 -24 32
-5 48 44 38 6 87 -67 87 -22 0 -44 -3 -47 -7z m101 -45 c-3 -20 -9 -23 -43
-23 -34 0 -40 3 -43 23 -3 20 1 22 43 22 42 0 46 -2 43 -22z"/>
<path d="M8914 2097 c-3 -8 -4 -47 -2 -88 l3 -74 63 -3 c36 -2 62 1 62 7 0 5
-24 11 -52 13 -49 3 -53 5 -56 31 -3 26 -2 27 47 27 64 0 67 18 4 22 -41 3
-48 6 -51 25 -3 20 2 22 48 25 67 4 64 22 -5 26 -40 2 -57 -1 -61 -11z"/>
<path d="M9077 2104 c-11 -11 -8 -162 3 -169 6 -4 10 10 10 34 0 41 0 41 39
41 55 0 61 18 9 22 -35 2 -44 7 -46 25 -3 20 2 22 45 25 26 2 48 8 48 13 0 12
-97 19 -108 9z"/>
<path d="M3398 843 l-3 -98 -47 -3 c-27 -2 -48 -7 -48 -13 0 -5 198 -9 515 -9
319 0 515 4 515 10 0 5 -26 10 -57 12 l-58 3 -3 98 c-4 129 -22 127 -22 -3 l0
-101 -67 3 -68 3 -3 98 c-1 53 -7 97 -12 97 -5 0 -11 -44 -12 -97 l-3 -98 -65
0 -65 0 -3 98 c-1 53 -7 97 -12 97 -5 0 -11 -44 -12 -97 l-3 -98 -62 -3 -63
-3 0 101 c0 82 -3 100 -15 100 -12 0 -15 -18 -15 -100 l0 -100 -65 0 -65 0 0
100 c0 82 -3 100 -15 100 -12 0 -15 -18 -15 -100 l0 -100 -60 0 -60 0 0 100
c0 81 -3 100 -15 100 -11 0 -15 -20 -17 -97z"/>
</g>
</svg>
