<?xml version="1.0" encoding="UTF-8" standalone="no"?>
<svg
   version="1.0"
   width="1432.000000pt"
   height="575.000000pt"
   viewBox="0 0 1432.000000 575.000000"
   preserveAspectRatio="xMidYMid meet"
   id="svg61"
   sodipodi:docname="current_mode_pwm_scheme_final.svg"
   inkscape:version="1.3.2 (091e20e, 2023-11-25)"
   xmlns:inkscape="http://www.inkscape.org/namespaces/inkscape"
   xmlns:sodipodi="http://sodipodi.sourceforge.net/DTD/sodipodi-0.dtd"
   xmlns="http://www.w3.org/2000/svg"
   xmlns:svg="http://www.w3.org/2000/svg">
  <defs
     id="defs61">
    <inkscape:path-effect
       effect="spiro"
       id="path-effect2"
       is_visible="true"
       lpeversion="1" />
    <inkscape:path-effect
       effect="spiro"
       id="path-effect1"
       is_visible="true"
       lpeversion="1" />
  </defs>
  <sodipodi:namedview
     id="namedview61"
     pagecolor="#ffffff"
     bordercolor="#000000"
     borderopacity="0.25"
     inkscape:showpageshadow="2"
     inkscape:pageopacity="0.0"
     inkscape:pagecheckerboard="0"
     inkscape:deskcolor="#d1d1d1"
     inkscape:document-units="pt"
     inkscape:zoom="0.62910836"
     inkscape:cx="990.29045"
     inkscape:cy="303.60429"
     inkscape:window-width="1850"
     inkscape:window-height="1016"
     inkscape:window-x="70"
     inkscape:window-y="1107"
     inkscape:window-maximized="1"
     inkscape:current-layer="g61" />
  <g
     transform="translate(0.000000,575.000000) scale(0.100000,-0.100000)"
     fill="#000000"
     stroke="none"
     id="g61">
    <path
       d="m 3740,5410 c -1147,-3 -2046,-6 -1998,-8 l 88,-2 v 0 h 16 c 1,174 -3,0 0,0 23,0 2772,-442 2785,-448 12,-5 -390,-261 -1374,-877 -764,-478 -1399,-878 -1411,-889 -21,-18 -21,-18 4,-4 14,8 651,407 1416,886 765,479 1397,874 1405,877 10,4 178,-252 573,-872 308,-483 564,-883 570,-890 8,-8 365,215 1401,878 764,489 1393,888 1397,887 4,-2 274,-401 600,-888 326,-486 598,-883 603,-882 6,1 646,401 1423,888 1172,735 1416,884 1426,873 7,-8 264,-409 572,-891 307,-482 560,-875 562,-874 2,2 -249,399 -557,882 -309,484 -557,880 -552,882 5,2 250,-36 546,-83 295,-47 541,-85 547,-83 5,2 -239,43 -543,92 -305,48 -561,90 -569,93 -8,3 -28,6 -45,8 -16,1 -632,98 -1368,216 l -1339,214 1944,5 c 1694,4 1432,6 -2047,10 -2194,3 -4928,3 -6075,0 z m 2082,-42 1,-33 4,32 4,32 1985,1 h 1984 v -310 c 0,-222 -3,-310 -11,-310 -6,0 -871,137 -1921,306 -1051,168 -1900.5837,305.232 -1908.5837,303.232 -8,-2 560.5837,-98.232 1282.5837,-213.232 722,-115 1321,-212 1331,-216 13,-4 -379,-259 -1364,-889 -1154,-738 -1383,-881 -1394,-870 -25,27 -1107,1730 -1102,1735 3,3 247,-33 542,-80 295,-47 545,-86 556,-86 18,0 19,10 17,278 l -3,277 -2,-272 c -3,-226 -6,-273 -17,-273 -25,0 -1090,171 -1106,177 -8,3 -20,5 -25,5 -10,-2 -2684,424 -2715,432 -8,2 857,4 1923,5 l 1937,1 z m 5423,-194 c 748,-120 1363,-220 1367,-223 7,-6 -2772,-1753 -2796,-1758 -13,-3 -1190,1751 -1177,1755 5,2 263,-38 573,-88 311,-49 573,-90 582,-90 14,0 16,30 16,316 v 317 l 38,-6 c 20,-4 649,-104 1397,-223 z"
       id="path3"
       style="stroke-width:11;stroke-dasharray:none"
       sodipodi:nodetypes="sccccsccccsccccccccccccscccscccccsccccccsscsscccssscccssccccccccccssccc" />
    <path
       d="M420 4080 l0 -120 25 0 25 0 0 120 0 120 -25 0 -25 0 0 -120z"
       id="path6" />
    <path
       d="M510 4080 l0 -120 26 0 25 0 -3 85 c-2 47 -2 85 -1 85 1 0 22 -38 48 -85 38 -71 50 -85 71 -85 l24 0 0 120 c0 113 -1 120 -20 120 -18 0 -20 -7 -21 -87 l0 -88 -45 88 c-41 80 -47 87 -74 87 l-30 0 0 -120z"
       id="path7" />
    <path
       d="M740 4081 l0 -121 65 0 c57 0 68 3 96 28 27 24 33 37 37 84 4 50 2 58 -26 89 -27 31 -35 34 -101 37 l-71 4 0 -121z m128 63 c17 -12 22 -25 22 -61 0 -57 -21 -83 -67 -83 l-33 0 0 80 0 80 28 0 c15 0 38 -7 50 -16z"
       id="path8" />
    <path
       d="M972 4104 c4 -91 6 -98 32 -120 37 -33 95 -32 133 0 26 23 28 29 31 120 l4 96 -26 0 c-26 0 -26 0 -26 -84 0 -89 -11 -116 -50 -116 -39 0 -50 27 -50 116 0 84 0 84 -26 84 l-26 0 4 -96z"
       id="path9" />
    <path
       d="M1238 4171 c-31 -27 -33 -34 -33 -91 0 -57 2 -64 33 -91 43 -39 98 -40 141 -3 35 29 38 39 14 48 -9 4 -25 -2 -38 -14 -45 -43 -105 -10 -105 58 0 73 56 107 104 63 14 -12 28 -16 41 -11 18 6 18 9 -12 38 -43 44 -99 45 -145 3z"
       id="path10" />
    <path
       d="M1420 4180 c0 -17 7 -20 40 -20 l40 0 0 -100 c0 -93 1 -100 20 -100 19 0 20 7 20 100 l0 100 35 0 c28 0 35 4 35 20 0 19 -7 20 -95 20 -88 0 -95 -1 -95 -20z"
       id="path11" />
    <path
       d="M1695 4191 c-76 -32 -86 -157 -17 -211 47 -38 136 -18 160 35 18 39 15 116 -6 141 -33 41 -88 55 -137 35z m91 -52 c41 -45 12 -139 -43 -139 -36 0 -63 34 -63 80 0 70 64 106 106 59z"
       id="path12" />
    <path
       d="M1890 4080 l0 -120 25 0 c23 0 25 4 25 45 0 41 2 45 25 45 18 0 31 -11 51 -45 20 -34 32 -45 51 -45 l25 0 -27 46 -27 46 21 22 c27 29 27 80 1 106 -16 16 -33 20 -95 20 l-75 0 0 -120z m139 62 c16 -30 -5 -52 -49 -52 -39 0 -40 1 -40 35 0 34 1 35 40 35 27 0 42 -5 49 -18z"
       id="path13" />
    <path
       d="M531 3756 c-71 -39 -67 -182 6 -215 46 -21 92 -13 126 21 31 31 31 31 10 41 -16 7 -26 4 -42 -12 -47 -47 -101 -14 -101 61 0 68 47 100 96 63 48 -36 75 -3 28 34 -31 24 -87 27 -123 7z"
       id="path16" />
    <path
       d="M720 3675 c0 -88 2 -98 25 -120 36 -37 97 -35 136 4 28 28 29 33 29 120 0 90 0 91 -25 91 -25 0 -25 -1 -25 -88 0 -93 -8 -112 -46 -112 -38 0 -54 36 -54 122 0 71 -2 78 -20 78 -19 0 -20 -7 -20 -95z"
       id="path17" />
    <path
       d="M950 3650 l0 -120 25 0 c23 0 25 4 25 45 0 42 2 45 28 45 22 0 31 -8 51 -45 18 -34 30 -45 47 -45 30 0 30 2 -1 54 -25 43 -25 43 -5 61 13 12 20 31 20 56 0 54 -26 69 -117 69 l-73 0 0 -120z m141 64 c21 -25 -1 -49 -50 -52 -41 -3 -41 -3 -41 32 0 35 1 36 39 36 23 0 44 -6 52 -16z"
       id="path18" />
    <path
       d="M1180 3650 l0 -120 25 0 c23 0 25 4 25 45 0 42 2 45 28 45 22 0 31 -8 51 -45 18 -34 30 -45 47 -45 30 0 30 2 -1 54 -25 43 -25 43 -5 61 13 12 20 31 20 56 0 54 -26 69 -117 69 l-73 0 0 -120z m141 64 c21 -25 -1 -49 -50 -52 -41 -3 -41 -3 -41 32 0 35 1 36 39 36 23 0 44 -6 52 -16z"
       id="path19" />
    <path
       d="M1410 3650 l0 -120 90 0 c83 0 90 1 90 20 0 18 -7 20 -65 20 l-65 0 0 30 0 30 60 0 c53 0 60 2 60 20 0 18 -7 20 -60 20 l-60 0 0 30 0 30 65 0 c58 0 65 2 65 20 0 19 -7 20 -90 20 l-90 0 0 -120z"
       id="path20" />
    <path
       d="M1630 3651 c0 -114 1 -121 20 -121 18 0 20 7 20 88 l0 87 48 -87 c41 -78 50 -88 74 -88 l28 0 0 120 c0 113 -1 120 -20 120 -17 0 -19 -8 -22 -87 l-3 -88 -45 85 c-38 72 -49 85 -72 88 l-28 3 0 -120z"
       id="path21" />
    <path
       d="M1840 3750 c0 -17 7 -20 40 -20 l40 0 0 -100 c0 -93 1 -100 20 -100 19 0 20 7 20 100 l0 100 35 0 c28 0 35 4 35 20 0 19 -7 20 -95 20 -88 0 -95 -1 -95 -20z"
       id="path22" />
    <path
       d="M1832 2538 l3 -323 2 318 3 317 160 0 160 0 0 -315 0 -315 1835 0 1835 0 0 315 0 315 145 0 145 0 0 -315 0 -315 1845 0 1845 0 0 315 0 315 145 0 145 0 0 -315 0 -315 1850 0 1850 0 0 315 0 315 145 0 145 0 3 -317 2 -318 3 323 2 322 -155 0 -155 0 0 -315 0 -315 -1840 0 -1840 0 0 315 0 315 -155 0 -155 0 0 -315 0 -315 -1835 0 -1835 0 0 315 0 315 -155 0 -155 0 0 -315 0 -315 -1825 0 -1825 0 0 315 0 315 -170 0 -170 0 2 -322z"
       id="path25" />
    <path
       d="M624 2621 c-35 -15 -54 -51 -54 -104 0 -80 39 -127 106 -127 50 0 105 44 88 71 -8 14 -22 11 -44 -11 -58 -58 -138 27 -99 103 7 12 17 25 23 29 19 13 56 8 74 -10 17 -17 52 -19 52 -2 0 4 -8 18 -18 30 -20 25 -92 36 -128 21z"
       id="path26" />
    <path
       d="M800 2510 l0 -120 85 0 c78 0 85 2 85 20 0 18 -7 20 -60 20 l-60 0 0 100 0 100 -25 0 -25 0 0 -120z"
       id="path27" />
    <path
       d="M1060 2623 c-71 -28 -89 -154 -30 -208 30 -27 99 -30 137 -6 59 37 67 147 13 196 -20 18 -93 29 -120 18z m80 -43 c22 -12 34 -59 25 -101 -12 -56 -90 -66 -113 -14 -36 79 20 152 88 115z"
       id="path28" />
    <path
       d="M1287 2610 c-50 -40 -58 -131 -15 -185 33 -43 118 -45 158 -5 24 24 25 36 3 44 -10 4 -23 -1 -35 -14 -43 -46 -108 -10 -108 60 0 68 67 107 106 61 10 -11 24 -16 35 -14 21 6 21 6 13 28 -17 43 -114 59 -157 25z"
       id="path29" />
    <path
       d="M1480 2510 l0 -120 25 0 c23 0 25 4 25 44 0 25 6 48 14 55 12 10 21 1 53 -43 31 -46 43 -56 67 -56 l28 0 -24 33 c-13 17 -36 48 -51 68 l-27 36 46 52 c42 47 44 51 23 51 -15 0 -43 -20 -76 -52 l-53 -52 0 52 c0 49 -2 52 -25 52 l-25 0 0 -120z"
       id="path30" />
    <path
       d="M1832 640 l3 -455 2 448 3 447 1420 0 1420 0 0 -445 0 -445 575 0 575 0 0 445 0 445 1385 0 1385 0 0 -445 0 -445 605 0 605 0 0 445 0 445 1420 0 1420 0 0 -445 0 -445 575 0 575 0 -2 453 -3 452 -2 -447 -3 -448 -565 0 -565 0 0 445 0 445 -1430 0 -1430 0 0 -445 0 -445 -595 0 -595 0 0 445 0 445 -1395 0 -1395 0 0 -445 0 -445 -565 0 -565 0 0 445 0 445 -1430 2 -1430 3 2 -455z"
       id="path51" />
    <path
       d="M728 994 c-15 -8 -32 -23 -38 -34 -13 -24 -13 -101 0 -134 19 -51 101 -71 166 -40 32 15 34 19 34 65 l0 49 -45 0 c-38 0 -45 -3 -45 -20 0 -15 7 -20 25 -20 30 0 34 -25 6 -40 -51 -27 -97 0 -107 61 -11 67 61 115 107 73 11 -10 25 -13 38 -9 17 5 19 9 9 25 -25 40 -99 52 -150 24z"
       id="path52" />
    <path
       d="M962 890 l-41 -120 25 0 c19 0 26 6 31 30 5 28 9 30 50 30 40 0 45 -3 54 -30 7 -19 18 -30 30 -30 10 0 19 3 19 7 0 4 -17 58 -37 120 -35 107 -39 113 -64 113 -26 0 -29 -6 -67 -120z m77 48 c25 -66 24 -68 -8 -68 -35 0 -35 -1 -19 51 13 45 16 47 27 17z"
       id="path53" />
    <path
       d="M1150 990 c0 -16 7 -20 35 -20 l35 0 0 -100 0 -100 25 0 25 0 0 100 0 100 35 0 c28 0 35 4 35 20 0 19 -7 20 -95 20 -88 0 -95 -1 -95 -20z"
       id="path54" />
    <path
       d="M1360 890 l0 -120 90 0 c83 0 90 1 90 20 0 18 -7 20 -65 20 l-65 0 0 30 0 30 60 0 c53 0 60 2 60 20 0 18 -7 20 -60 20 l-60 0 0 30 0 30 65 0 c58 0 65 2 65 20 0 19 -7 20 -90 20 l-90 0 0 -120z"
       id="path55" />
    <path
       d="M490 460 c0 -113 1 -120 20 -120 17 0 20 7 20 45 l0 45 45 0 c54 0 95 33 95 75 0 14 -11 37 -25 50 -21 22 -33 25 -90 25 l-65 0 0 -120z m125 45 c0 -28 -3 -30 -42 -33 l-43 -3 0 36 0 36 43 -3 c39 -3 42 -5 42 -33z"
       id="path56" />
    <path
       d="M700 498 c0 -105 6 -125 41 -143 36 -19 72 -19 108 0 38 19 41 31 41 136 0 82 -1 89 -20 89 -18 0 -20 -7 -20 -78 0 -86 -16 -122 -54 -122 -38 0 -46 19 -46 112 0 87 0 88 -25 88 -25 0 -25 -1 -25 -82z"
       id="path57" />
    <path
       d="M930 460 l0 -120 85 0 c78 0 85 2 85 20 0 18 -7 20 -60 20 l-60 0 0 100 0 100 -25 0 -25 0 0 -120z"
       id="path58" />
    <path
       d="M1152 564 c-25 -18 -31 -74 -8 -93 7 -6 37 -18 65 -27 44 -13 52 -18 49 -37 -2 -17 -11 -23 -39 -25 -23 -2 -40 2 -49 12 -16 20 -50 21 -50 2 0 -8 12 -24 26 -35 58 -45 164 -14 164 48 0 36 -24 57 -82 71 -44 11 -65 31 -52 51 7 12 74 11 74 -1 0 -5 11 -10 25 -10 15 0 25 6 25 14 0 24 -41 46 -85 46 -22 0 -51 -7 -63 -16z"
       id="path59" />
    <path
       d="M1340 460 l0 -120 90 0 c83 0 90 1 90 20 0 18 -7 20 -65 20 l-65 0 0 30 0 30 60 0 c53 0 60 2 60 20 0 18 -7 20 -60 20 l-60 0 0 30 0 30 65 0 c58 0 65 2 65 20 0 19 -7 20 -90 20 l-90 0 0 -120z"
       id="path60" />
    <path
       d="M1582 564 c-25 -18 -31 -74 -8 -93 7 -6 37 -18 65 -27 44 -13 52 -18 49 -37 -2 -17 -11 -23 -39 -25 -23 -2 -40 2 -49 12 -16 20 -50 21 -50 2 0 -8 12 -24 26 -35 58 -45 164 -14 164 48 0 36 -24 57 -82 71 -44 11 -65 31 -52 51 7 12 74 11 74 -1 0 -5 11 -10 25 -10 15 0 25 6 25 14 0 24 -41 46 -85 46 -22 0 -51 -7 -63 -16z"
       id="path61" />
    <text
       xml:space="preserve"
       style="font-size:320.00000003px;fill:#000000;stroke:#000000;stroke-width:9.99999998;stroke-miterlimit:3.8;stroke-dasharray:none"
       x="679.97253"
       y="-5455.4121"
       id="text61"
       transform="scale(1,-1)"><tspan
         sodipodi:role="line"
         id="tspan61"
         style="stroke-width:9.99999998;stroke-dasharray:none;font-size:320.00000003px"
         x="679.97253"
         y="-5455.4121">Ipeak</tspan></text>
    <text
       xml:space="preserve"
       style="font-size:319.595px;fill:#000000;stroke:#000000;stroke-width:13.3164;stroke-miterlimit:3.8;stroke-dasharray:none"
       x="139.36877"
       y="-3811.8188"
       id="text62"
       transform="scale(0.80024156,-1.2496227)"><tspan
         sodipodi:role="line"
         id="tspan62"
         style="font-size:319.595px;stroke-width:13.3165"
         x="139.36877"
         y="-3811.8188">Ipeak - Slope compensation</tspan><tspan
         sodipodi:role="line"
         style="font-size:319.595px;stroke-width:13.3165"
         x="139.36877"
         y="-3412.3252"
         id="tspan63" /></text>
    <path
       style="fill:#000000;stroke:#000000;stroke-width:9.99998;stroke-miterlimit:3.8"
       d="m 5811,4770 20,629"
       id="path1"
       inkscape:path-effect="#path-effect1"
       inkscape:original-d="m 5811,4770 c 6.6667,209.6667 13.3333,419.3333 20,629" />
    <path
       style="fill:#000000;stroke:#000000;stroke-width:4.64437086;stroke-miterlimit:3.8;stroke-dasharray:none"
       d="m 5943,5388 -112,11"
       id="path2"
       inkscape:path-effect="#path-effect2"
       inkscape:original-d="m 5943,5388 c -37.3334,3.6667 -74.6667,7.3333 -112,11"
       transform="matrix(1.2803721,0,0,0.97907666,-1634.9634,112.85001)" />
    <path
       style="fill:#000000;stroke:#000000;stroke-width:3.72526;stroke-miterlimit:3.8;stroke-dasharray:none"
       d="m 5974.1177,5388.8519 39.9027,-8.6565"
       id="path4" />
  </g>
</svg>
