<?xml version="1.0" encoding="UTF-8" standalone="no"?>
<svg
   version="1.0"
   width="873.000000pt"
   height="663.000000pt"
   viewBox="0 0 873.000000 663.000000"
   preserveAspectRatio="xMidYMid meet"
   id="svg76"
   sodipodi:docname="current_mode_schema_final.svg"
   inkscape:version="1.3.2 (091e20e, 2023-11-25)"
   xmlns:inkscape="http://www.inkscape.org/namespaces/inkscape"
   xmlns:sodipodi="http://sodipodi.sourceforge.net/DTD/sodipodi-0.dtd"
   xmlns="http://www.w3.org/2000/svg"
   xmlns:svg="http://www.w3.org/2000/svg">
  <defs
     id="defs76" />
  <sodipodi:namedview
     id="namedview76"
     pagecolor="#ffffff"
     bordercolor="#000000"
     borderopacity="0.25"
     inkscape:showpageshadow="2"
     inkscape:pageopacity="0.0"
     inkscape:pagecheckerboard="0"
     inkscape:deskcolor="#d1d1d1"
     inkscape:document-units="pt"
     inkscape:zoom="0.90188569"
     inkscape:cx="583.22247"
     inkscape:cy="370.33518"
     inkscape:window-width="1850"
     inkscape:window-height="1016"
     inkscape:window-x="70"
     inkscape:window-y="27"
     inkscape:window-maximized="1"
     inkscape:current-layer="g76" />
  <g
     transform="translate(0.000000,663.000000) scale(0.100000,-0.100000)"
     fill="#000000"
     stroke="none"
     id="g76">
    <path
       d="M4785 6416 c-31 -13 -95 -79 -95 -96 0 -19 -15 -9 -41 29 -35 51 -88 75 -151 69 -78 -8 -137 -65 -160 -155 l-10 -43 -69 0 -68 0 -20 45 c-26 60 -61 76 -99 48 -15 -11 -32 -35 -38 -54 l-12 -34 -232 -3 c-199 -2 -236 0 -257 14 -22 14 -27 14 -48 0 -21 -14 -100 -16 -665 -16 l-640 0 0 -50 0 -50 -40 0 c-23 0 -40 -5 -40 -11 0 -6 18 -45 40 -86 29 -55 40 -87 40 -119 l0 -44 -45 0 c-61 0 -57 -17 5 -22 69 -4 150 2 150 12 0 5 -19 10 -42 12 -41 3 -43 5 -46 38 -2 25 9 60 38 118 22 46 40 88 40 93 0 5 -18 9 -40 9 l-40 0 0 40 0 40 140 0 140 0 0 -170 0 -170 -45 0 c-25 0 -45 -4 -45 -10 0 -6 42 -10 107 -10 66 0 103 4 97 9 -5 5 -27 11 -49 13 l-40 3 0 165 0 165 484 3 c452 2 485 1 497 -15 11 -14 13 -92 14 -370 l0 -353 -66 0 c-47 0 -65 -3 -62 -12 3 -8 23 -11 56 -9 28 1 56 0 62 -4 6 -3 -15 -55 -50 -125 l-60 -119 58 -3 57 -3 3 -316 c2 -297 1 -317 -16 -332 -17 -16 -61 -17 -498 -15 l-479 3 -5 628 -5 628 -305 0 c-200 0 -306 -4 -308 -11 -3 -7 95 -10 297 -10 l301 0 0 -620 0 -620 -945 0 -945 0 0 283 0 283 59 12 c192 40 301 248 223 426 -39 88 -140 164 -239 181 l-43 7 0 244 0 244 645 0 645 0 0 -170 0 -170 -45 0 c-25 0 -45 -4 -45 -10 0 -6 40 -10 100 -10 60 0 100 4 100 10 0 6 -20 10 -45 10 l-45 0 0 180 0 180 -670 0 -670 0 0 -253 0 -254 -52 -12 c-107 -24 -191 -92 -235 -191 -24 -54 -22 -174 4 -232 41 -90 144 -168 242 -184 l41 -7 0 -293 0 -294 958 -2 957 -3 3 -382 2 -383 -730 0 -730 0 0 -415 0 -415 -170 0 -170 0 0 -620 0 -620 355 0 355 0 2 168 3 167 205 0 205 0 0 -415 0 -415 -300 -3 -300 -2 2 -253 2 -252 616 -3 615 -2 0 255 0 255 -300 0 c-233 0 -300 3 -300 13 0 6 0 194 0 417 0 312 -3 410 -12 423 -11 15 -39 17 -223 19 l-210 3 -3 238 c-2 185 0 238 10 242 7 2 381 5 831 8 l819 4 186 -107 c103 -59 250 -144 326 -189 76 -44 143 -81 147 -81 5 0 9 52 9 115 0 63 2 115 5 115 4 0 19 -7 35 -15 27 -14 30 -14 30 0 0 13 26 15 190 15 177 0 190 -1 190 -18 0 -40 34 -113 73 -158 43 -49 123 -94 169 -94 36 0 42 -13 23 -50 -14 -27 -14 -30 0 -30 13 0 15 -26 15 -190 l0 -190 -315 0 -315 0 0 -425 0 -425 645 0 645 0 0 425 0 425 -315 0 -315 0 0 190 c0 164 2 190 15 190 14 0 14 3 0 30 -21 41 -19 50 13 50 97 1 216 117 237 233 8 41 10 42 45 22 32 -18 40 -18 40 0 0 15 152 17 1238 20 l97 0 0 -145 c0 -85 4 -148 10 -152 6 -4 225 -8 488 -8 l477 0 0 150 c0 98 4 150 10 150 6 0 24 -7 41 -15 26 -14 30 -14 35 0 5 12 24 15 89 15 l83 0 7 -37 c15 -83 78 -168 153 -207 70 -36 194 -36 264 0 74 39 138 124 153 207 l7 36 29 -15 c26 -13 29 -13 29 0 0 12 17 16 82 18 54 2 83 7 86 16 3 9 -18 12 -82 12 -72 0 -86 3 -86 16 0 10 -5 14 -15 10 -8 -3 -21 -8 -27 -11 -9 -3 -19 15 -30 53 -11 39 -32 75 -60 107 -42 48 -123 95 -165 95 -31 0 -36 15 -18 50 14 27 14 30 0 30 -13 0 -15 185 -15 1720 0 1140 -3 1720 -10 1720 -6 0 -9 6 -8 13 2 9 -160 11 -792 8 -728 -4 -796 -2 -809 13 -17 20 -35 21 -51 1 -17 -20 -340 -23 -340 -2 0 59 -55 143 -111 173 -69 35 -170 3 -214 -69 l-21 -37 -31 43 c-72 103 -212 102 -278 -1 -11 -17 -22 -31 -25 -31 -3 0 -18 18 -33 40 -46 67 -134 95 -202 65z m137 -32 c32 -17 73 -84 82 -136 8 -44 26 -51 26 -11 0 39 37 110 71 134 92 65 216 2 235 -118 8 -54 22 -55 30 -2 12 73 69 135 135 145 79 13 158 -56 167 -146 l5 -50 176 0 c124 0 181 -4 189 -12 9 -9 12 -100 12 -350 l0 -337 -130 -3 c-76 -2 -131 -7 -133 -13 -1 -6 97 -11 276 -13 242 -2 277 0 277 13 0 13 -21 15 -130 15 l-130 0 0 334 c0 184 3 341 6 350 5 14 56 16 470 16 l464 0 -2 -187 -3 -187 -65 -38 c-36 -21 -66 -42 -68 -46 -1 -4 52 -39 118 -76 66 -38 122 -72 125 -76 3 -5 -51 -41 -120 -81 -69 -39 -125 -75 -125 -78 0 -4 54 -38 120 -75 66 -38 122 -72 125 -76 3 -5 -51 -41 -120 -80 -69 -40 -125 -75 -125 -79 0 -3 54 -37 120 -75 66 -38 123 -72 125 -76 3 -4 -21 -23 -53 -42 l-57 -34 -3 -174 c-1 -107 -7 -179 -13 -187 -16 -18 -889 -19 -907 -1 -9 9 -12 114 -12 410 l0 398 130 0 c80 0 130 4 130 10 0 6 -100 10 -280 10 -180 0 -280 -4 -280 -10 0 -6 52 -10 135 -10 l135 0 0 -399 c0 -324 -3 -401 -14 -410 -10 -8 -271 -10 -967 -9 l-954 3 -3 785 -2 784 29 23 c16 13 32 37 36 53 l7 30 89 0 89 0 0 32 c0 44 36 114 71 139 92 65 216 2 235 -118 4 -24 10 -43 14 -43 4 0 12 24 19 53 26 118 124 170 223 121z m-777 -114 c9 -17 13 -35 10 -40 -3 -6 -28 -10 -56 -10 -54 0 -63 15 -33 58 23 33 60 29 79 -8z m-111 -104 c8 -19 24 -41 35 -48 21 -13 21 -14 21 -805 l0 -793 -274 0 c-219 0 -276 3 -285 14 -8 9 -11 105 -9 332 l3 319 53 3 c28 2 52 7 52 12 0 5 -24 57 -54 117 -30 59 -52 111 -49 116 3 5 30 7 61 6 36 -2 57 1 60 9 2 8 -16 12 -62 12 l-66 0 0 358 c0 265 3 361 12 370 9 9 78 12 250 12 l238 0 14 -34z m126 29 c0 -2 -5 -16 -12 -30 -16 -36 -56 -44 -80 -15 -32 39 -24 50 37 50 30 0 55 -2 55 -5z m3520 -1222 c0 -676 3 -1448 6 -1716 l7 -488 -21 -6 c-20 -5 -21 -7 -6 -35 17 -34 9 -47 -31 -48 -33 -1 -108 -39 -143 -73 -39 -37 -77 -107 -87 -160 l-7 -37 -83 0 c-65 0 -84 3 -89 15 -5 14 -9 14 -35 0 -17 -8 -35 -15 -41 -15 -6 0 -10 52 -10 150 l0 150 -485 0 -484 0 -3 -147 -3 -148 -665 -3 c-583 -2 -665 0 -673 13 -7 13 -11 13 -37 0 -38 -20 -37 -20 -45 22 -16 87 -79 169 -160 208 -114 56 -258 27 -344 -71 -38 -43 -71 -116 -71 -156 0 -17 -13 -18 -190 -18 -164 0 -190 2 -190 15 0 14 -3 14 -30 0 -16 -8 -31 -15 -35 -15 -3 0 -5 61 -5 135 0 74 2 135 5 135 4 0 19 -7 35 -15 27 -14 30 -14 30 -1 0 13 25 16 158 18 l157 3 8 430 c4 237 6 642 3 901 l-5 472 22 6 c40 11 1895 7 1902 -4 3 -5 17 -10 30 -10 13 0 27 5 30 10 10 15 887 14 903 -2 8 -8 12 -49 12 -120 l0 -108 -130 0 c-109 0 -130 -2 -130 -15 0 -13 35 -15 278 -13 176 2 277 7 277 13 0 6 -53 11 -132 13 l-133 3 0 104 c0 65 5 113 12 125 9 15 9 24 0 42 -9 16 -12 72 -10 188 l3 164 61 36 c33 19 61 40 62 45 1 6 -51 41 -116 78 -64 38 -120 71 -124 75 -4 4 51 40 122 81 72 40 130 75 130 77 0 2 -33 22 -72 45 -40 23 -99 57 -131 76 l-58 35 125 72 c70 40 129 75 132 78 3 3 -44 34 -103 68 -177 102 -165 87 -94 127 l61 34 0 195 0 194 320 0 320 0 0 -1227z m-6981 686 c86 -38 160 -132 174 -223 15 -93 -38 -211 -119 -266 -56 -39 -152 -64 -213 -55 -244 35 -348 307 -183 478 89 93 223 118 341 66z m2785 -1174 c16 -12 22 -12 47 1 24 12 76 14 291 12 l263 -3 3 -892 2 -893 -150 0 c-128 0 -150 2 -150 15 0 14 -3 14 -30 0 -16 -8 -31 -15 -35 -15 -3 0 -5 47 -5 105 0 71 -4 105 -11 105 -6 0 -155 -83 -331 -185 l-319 -185 -819 0 c-450 0 -825 3 -834 6 -14 5 -16 30 -16 175 l0 169 -170 0 -170 0 0 398 0 399 715 6 c393 3 719 8 725 12 6 4 10 138 10 389 0 210 3 386 7 389 3 4 220 7 482 7 396 -1 479 -3 495 -15z m206 -1951 c0 -190 -4 -344 -8 -342 -52 22 -591 343 -585 349 12 12 577 339 586 339 4 0 7 -156 7 -346z m-2322 -256 l-3 -593 -325 0 -325 0 -3 593 -2 592 330 0 330 0 -2 -592z m5752 117 l0 -285 -465 0 -465 0 0 285 0 285 465 0 465 0 0 -285z m-2543 236 c23 -11 45 -26 49 -32 4 -7 -29 -47 -80 -97 l-86 -87 -85 85 c-47 46 -85 88 -85 92 0 11 44 38 88 54 50 19 147 12 199 -15z m3202 14 c23 -8 53 -23 66 -33 l24 -19 -90 -89 -89 -89 -87 88 c-87 87 -88 87 -68 107 47 46 165 63 244 35z m-3426 -337 c-48 -49 -91 -88 -95 -88 -3 0 -19 25 -34 56 -44 90 -34 214 23 277 16 17 21 14 105 -70 l88 -88 -87 -87z m350 193 c35 -80 21 -207 -30 -264 -16 -17 -21 -14 -105 70 l-88 88 87 87 c97 98 101 98 136 19z m2880 -194 l-88 -88 -21 27 c-60 74 -58 238 3 307 16 17 21 14 105 -70 l88 -88 -87 -88z m341 211 c45 -92 38 -204 -15 -273 l-22 -27 -88 88 -89 89 87 87 c48 49 91 88 95 88 3 0 18 -24 32 -52z m-3375 -232 c53 -53 81 -88 76 -96 -4 -7 -31 -23 -59 -36 -82 -38 -190 -29 -252 22 l-29 23 85 85 c46 47 87 86 90 86 3 0 43 -38 89 -84z m3230 0 c48 -48 81 -89 77 -95 -14 -23 -91 -53 -145 -58 -42 -4 -70 0 -113 16 -94 36 -94 40 3 137 46 46 86 84 89 84 3 0 43 -38 89 -84z m-2689 -1061 l0 -395 -625 0 -625 0 0 395 0 395 625 0 625 0 0 -395z m-2680 -315 l0 -230 -590 0 -590 0 0 223 c0 123 3 227 7 230 3 4 269 7 590 7 l583 0 0 -230z"
       id="path2" />
    <path
       d="M5485 5475 c-29 -28 -32 -70 -10 -102 18 -25 72 -40 88 -24 8 8 4 11 -16 11 -31 0 -67 31 -67 58 0 32 29 62 61 62 16 0 29 5 29 10 0 20 -61 10 -85 -15z"
       id="path3" />
    <path
       d="M7310 5415 c0 -43 4 -75 10 -75 6 0 10 14 10 30 0 23 5 30 19 30 12 0 23 -11 30 -30 5 -16 14 -30 20 -30 10 0 3 38 -10 55 -4 6 -1 19 7 29 8 11 14 23 14 27 0 19 -35 39 -66 39 l-34 0 0 -75z m58 56 c21 -13 10 -46 -16 -49 -17 -3 -22 1 -22 21 0 35 13 45 38 28z"
       id="path4" />
    <path
       d="M6840 4160 c0 -6 70 -10 191 -10 124 0 188 3 184 10 -4 6 -78 10 -191 10 -116 0 -184 -4 -184 -10z"
       id="path5" />
    <path
       d="M6925 4070 c-4 -6 32 -10 100 -10 68 0 104 4 100 10 -3 6 -48 10 -100 10 -52 0 -97 -4 -100 -10z"
       id="path6" />
    <path
       d="M5460 2610 c0 -56 3 -70 15 -70 9 0 15 9 15 22 l0 22 16 -22 c8 -12 22 -22 30 -22 12 0 11 5 -5 26 -20 25 -20 27 -4 40 10 7 15 16 11 20 -5 4 -17 -1 -28 -11 -20 -18 -20 -18 -20 23 0 31 -4 42 -15 42 -12 0 -15 -14 -15 -70z"
       id="path7" />
    <path
       d="M5100 2605 c0 -51 3 -65 15 -65 12 0 15 14 15 65 0 51 -3 65 -15 65 -12 0 -15 -14 -15 -65z"
       id="path8" />
    <path
       d="M5150 2563 c0 -49 3 -63 15 -63 8 0 15 9 15 20 0 13 7 20 18 20 24 0 42 19 42 46 0 29 -18 41 -57 41 l-33 0 0 -64z m64 31 c8 -20 -1 -34 -20 -34 -8 0 -14 8 -14 18 0 33 23 44 34 16z"
       id="path9" />
    <path
       d="M5272 2618 c-7 -7 -12 -25 -12 -40 0 -21 6 -29 25 -34 27 -7 55 0 55 14 0 5 -11 7 -24 5 -13 -3 -27 0 -30 6 -5 7 4 11 23 11 19 0 31 5 31 13 0 18 -21 37 -40 37 -9 0 -21 -5 -28 -12z m41 -15 c-7 -2 -19 -2 -25 0 -7 3 -2 5 12 5 14 0 19 -2 13 -5z"
       id="path10" />
    <path
       d="M5365 2620 c-4 -6 6 -10 22 -11 28 -1 28 -1 3 -8 -18 -5 -25 -14 -25 -31 0 -22 5 -25 38 -28 36 -3 37 -2 37 30 0 19 -5 39 -12 46 -15 15 -54 16 -63 2z m45 -50 c0 -5 -7 -10 -15 -10 -8 0 -15 5 -15 10 0 6 7 10 15 10 8 0 15 -4 15 -10z"
       id="path11" />
    <path
       d="M411 5454 c1 -30 43 -139 54 -139 11 0 53 108 54 138 2 34 -16 8 -34 -54 l-19 -62 -21 61 c-21 65 -35 87 -34 56z"
       id="path12" />
    <path
       d="M547 5463 c-11 -10 -8 -141 3 -148 6 -4 10 23 10 74 0 81 -1 87 -13 74z"
       id="path13" />
    <path
       d="M600 5396 c0 -92 18 -111 22 -24 l3 63 35 -59 c19 -33 40 -58 45 -58 14 2 19 152 5 152 -6 0 -10 -26 -10 -62 l0 -63 -37 63 c-50 84 -63 81 -63 -12z"
       id="path14" />
    <path
       d="M3580 2730 c0 -13 -7 -20 -19 -20 -11 0 -23 -4 -26 -10 -4 -6 5 -10 19 -10 19 0 26 -5 26 -20 0 -11 5 -20 10 -20 6 0 10 9 10 20 0 13 7 20 20 20 11 0 20 5 20 10 0 6 -9 10 -20 10 -13 0 -20 7 -20 20 0 11 -4 20 -10 20 -5 0 -10 -9 -10 -20z"
       id="path16" />
    <path
       d="M3550 2390 c0 -5 16 -10 35 -10 19 0 35 5 35 10 0 6 -16 10 -35 10 -19 0 -35 -4 -35 -10z"
       id="path17" />
    <path
       d="M1150 2540 c0 -53 4 -90 10 -90 6 0 10 18 10 40 0 36 3 40 25 40 18 0 32 -11 51 -40 15 -22 33 -40 40 -40 20 0 18 8 -12 47 l-26 35 21 14 c50 35 11 84 -67 84 l-52 0 0 -90z m94 64 c30 -12 19 -43 -18 -50 -43 -7 -56 0 -56 32 0 20 5 24 29 24 16 0 36 -3 45 -6z"
       id="path18" />
    <path
       d="M1165 2095 c-25 -24 -26 -28 -12 -48 7 -11 29 -25 48 -30 50 -12 65 -30 44 -51 -22 -21 -37 -20 -68 4 -30 24 -37 25 -37 6 0 -21 39 -46 71 -46 15 0 37 9 50 19 20 16 22 23 14 47 -8 22 -20 31 -58 42 -36 10 -47 18 -45 30 4 23 66 29 74 8 8 -20 24 -21 24 -2 0 18 -19 33 -52 41 -21 5 -33 1 -53 -20z"
       id="path19" />
    <path
       d="M6520 2435 c0 -37 4 -65 10 -65 6 0 10 11 10 25 0 20 5 25 25 25 20 0 45 24 45 44 0 15 -35 36 -61 36 l-29 0 0 -65z m55 25 c0 -8 -8 -16 -17 -18 -13 -2 -18 3 -18 18 0 15 5 20 18 18 9 -2 17 -10 17 -18z"
       id="path20" />
    <path
       d="M6627 2493 c-4 -3 -7 -33 -7 -65 0 -45 3 -58 15 -58 12 0 15 14 15 65 0 60 -6 75 -23 58z"
       id="path21" />
    <path
       d="M6680 2435 l0 -65 31 0 c50 0 69 16 69 59 0 46 -24 71 -68 71 l-32 0 0 -65z m72 19 c14 -31 1 -57 -31 -62 -19 -3 -21 1 -21 42 0 39 3 46 20 46 12 0 25 -10 32 -26z"
       id="path22" />
    <path
       d="M7667 2553 c-16 -16 -5 -33 21 -33 35 0 45 9 31 27 -12 14 -41 18 -52 6z"
       id="path23" />
    <path
       d="M4630 2440 c0 -15 -7 -20 -25 -20 -32 0 -34 -27 -2 -32 14 -2 23 -11 25 -26 4 -28 26 -24 30 6 3 16 10 22 29 22 30 0 26 24 -5 28 -14 2 -22 11 -22 23 0 10 -7 19 -15 19 -8 0 -15 -9 -15 -20z"
       id="path24" />
    <path
       d="M7858 2428 c-2 -15 -11 -24 -26 -26 -28 -4 -24 -26 6 -30 14 -2 22 -11 22 -23 0 -10 7 -19 15 -19 8 0 15 9 15 19 0 12 8 21 22 23 32 5 35 28 4 28 -21 0 -26 5 -26 25 0 32 -27 34 -32 3z"
       id="path25" />
    <path
       d="M4430 2255 c0 -10 10 -15 30 -15 20 0 30 5 30 15 0 10 -10 15 -30 15 -20 0 -30 -5 -30 -15z"
       id="path26" />
    <path
       d="M4029 1431 c-20 -16 -22 -23 -13 -38 6 -10 25 -23 42 -29 49 -16 61 -32 38 -50 -26 -19 -32 -18 -57 7 -11 11 -24 18 -27 14 -11 -10 13 -38 42 -48 36 -12 76 14 76 48 0 25 -2 27 -79 56 -19 8 -21 12 -11 24 16 20 39 19 62 -2 10 -9 21 -13 26 -9 9 10 -36 46 -58 46 -10 0 -28 -9 -41 -19z"
       id="path27" />
    <path
       d="M4440 1424 c0 -9 -9 -18 -20 -21 -11 -3 -24 -20 -31 -42 l-12 -36 -12 34 c-15 45 -31 50 -40 12 -8 -39 -22 -40 -30 -1 -7 31 -25 51 -25 27 0 -23 31 -107 40 -107 5 0 14 17 21 38 l12 37 12 -35 c15 -45 26 -43 45 7 21 56 34 57 38 1 2 -28 8 -48 17 -52 17 -6 30 10 15 19 -12 8 -13 72 -1 79 5 4 4 17 -2 31 -14 28 -27 33 -27 9z"
       id="path28" />
    <path
       d="M4733 1415 c-6 -14 -7 -27 -2 -31 5 -3 9 -25 9 -49 0 -28 5 -45 15 -48 17 -7 30 9 15 18 -12 8 -13 72 -1 79 9 6 -8 56 -19 56 -3 0 -10 -11 -17 -25z"
       id="path29" />
    <path
       d="M4800 1365 c0 -43 4 -75 10 -75 6 0 10 20 10 44 0 25 5 48 10 51 20 12 40 -17 40 -56 0 -22 5 -39 10 -39 6 0 10 22 10 49 0 54 -17 77 -50 68 -15 -4 -20 0 -20 14 0 10 -4 19 -10 19 -6 0 -10 -32 -10 -75z"
       id="path30" />
    <path
       d="M4173 1403 c-7 -2 -13 -11 -13 -19 0 -12 4 -12 21 -4 22 12 49 7 49 -10 0 -5 -9 -10 -21 -10 -31 0 -59 -19 -59 -40 0 -25 34 -44 58 -32 9 5 23 7 30 5 16 -6 17 88 0 105 -12 12 -43 15 -65 5z m57 -73 c0 -16 -35 -29 -51 -19 -12 8 -12 10 1 19 19 13 50 13 50 0z"
       id="path31" />
    <path
       d="M4507 1392 c-26 -29 -22 -78 8 -98 23 -15 27 -15 50 0 19 12 25 25 25 51 0 58 -49 85 -83 47z m47 -8 c20 -8 21 -57 1 -74 -32 -26 -63 38 -33 68 14 14 12 14 32 6z"
       id="path32" />
    <path
       d="M4627 1392 c-37 -41 -2 -121 46 -106 47 15 62 69 27 104 -25 25 -52 26 -73 2z m63 -21 c14 -27 13 -37 -6 -55 -20 -21 -54 -4 -54 27 0 44 41 63 60 28z"
       id="path33" />
    <path
       d="M4010 1177 c-37 -19 -50 -79 -24 -114 43 -57 129 -49 129 12 0 27 -4 30 -32 33 -19 2 -33 -1 -33 -7 0 -6 9 -11 19 -11 23 0 37 -18 25 -30 -5 -4 -19 -11 -31 -14 -34 -11 -77 36 -68 72 11 48 58 67 89 37 19 -19 26 -19 26 0 0 15 -37 35 -63 35 -7 0 -23 -6 -37 -13z"
       id="path34" />
    <path
       d="M4702 1164 c-13 -25 -3 -121 14 -135 18 -15 32 -3 16 13 -14 14 -16 69 -4 84 5 5 3 20 -4 33 -11 22 -13 22 -22 5z"
       id="path35" />
    <path
       d="M4157 1132 c-44 -48 2 -129 58 -104 14 7 25 16 25 22 0 12 -10 13 -29 1 -9 -6 -22 -6 -33 0 -30 16 -20 29 22 29 36 0 40 3 40 25 0 42 -54 59 -83 27z m61 -19 c2 -9 -7 -13 -28 -13 -28 0 -31 2 -20 15 15 18 41 16 48 -2z"
       id="path36" />
    <path
       d="M4282 1143 c-21 -4 -23 -9 -20 -54 4 -60 22 -70 26 -14 2 22 7 44 12 49 17 17 40 -15 40 -55 0 -22 5 -39 10 -39 17 0 12 87 -6 104 -16 16 -20 17 -62 9z"
       id="path37" />
    <path
       d="M4402 1134 c-28 -19 -29 -67 -2 -94 24 -24 39 -25 66 -6 23 17 13 32 -12 18 -12 -7 -25 -7 -36 -1 -30 16 -20 28 25 31 36 3 42 6 39 23 -4 21 -28 45 -47 45 -6 0 -21 -7 -33 -16z m56 -21 c2 -9 -7 -13 -28 -13 -28 0 -31 2 -20 15 15 18 41 16 48 -2z"
       id="path38" />
    <path
       d="M4522 1143 c-21 -4 -23 -9 -20 -54 4 -62 22 -69 26 -10 3 33 8 44 23 48 17 5 18 25 1 22 -4 -1 -17 -4 -30 -6z"
       id="path39" />
    <path
       d="M4590 1135 c-17 -20 -5 -32 15 -15 15 13 45 7 45 -9 0 -5 -15 -12 -34 -15 -35 -7 -50 -25 -40 -50 8 -21 32 -28 55 -16 11 6 24 8 29 5 6 -4 10 15 10 48 0 41 -4 56 -16 61 -27 10 -51 7 -64 -9z m60 -64 c0 -5 -7 -14 -15 -21 -18 -15 -42 1 -31 19 8 13 46 15 46 2z"
       id="path40" />
    <path
       d="M4779 1140 c-22 -13 -32 -56 -19 -80 30 -56 100 -40 100 24 0 51 -41 80 -81 56z m49 -22 c28 -28 3 -86 -31 -72 -19 7 -26 34 -16 62 9 24 29 28 47 10z"
       id="path41" />
    <path
       d="M4898 1143 c-14 -4 -18 -15 -18 -59 0 -30 5 -54 10 -54 6 0 10 21 10 46 0 37 4 47 20 51 11 3 17 9 14 14 -5 9 -8 10 -36 2z"
       id="path42" />
    <path
       d="M1532 967 c-51 -54 -13 -157 58 -157 29 0 70 29 70 50 0 16 -12 12 -37 -12 -19 -18 -28 -20 -51 -12 -37 13 -53 71 -28 108 19 30 73 37 82 11 6 -16 34 -21 34 -7 0 19 -39 42 -72 42 -23 0 -42 -8 -56 -23z"
       id="path43" />
    <path
       d="M1690 899 c0 -57 4 -88 10 -84 6 3 10 44 10 91 0 49 -4 84 -10 84 -6 0 -10 -37 -10 -91z"
       id="path44" />
    <path
       d="M2000 900 c0 -53 4 -90 10 -90 6 0 10 14 10 30 0 18 5 30 13 30 7 0 21 -13 30 -30 10 -16 22 -30 28 -30 13 0 12 7 -13 50 -22 38 -22 39 -4 59 17 19 17 21 3 21 -9 0 -22 -9 -29 -20 -20 -31 -28 -24 -28 25 0 25 -4 45 -10 45 -6 0 -10 -37 -10 -90z"
       id="path45" />
    <path
       d="M1755 936 c-27 -20 -27 -92 0 -112 46 -34 95 -3 95 59 0 56 -52 85 -95 53z m56 -16 c23 -13 26 -62 3 -81 -34 -28 -73 41 -43 77 14 17 15 17 40 4z"
       id="path46" />
    <path
       d="M1898 939 c-26 -15 -34 -74 -14 -105 14 -19 24 -24 48 -22 17 2 36 11 42 20 15 24 0 34 -20 14 -26 -27 -49 -16 -52 25 -4 47 20 70 46 45 23 -20 32 -20 32 -1 0 15 -30 35 -52 35 -7 0 -21 -5 -30 -11z"
       id="path47" />
    <path
       d="M2023 5525 c-12 -9 -25 -31 -29 -50 -9 -48 15 -81 67 -95 22 -6 47 -14 55 -17 8 -3 14 0 14 6 0 6 -7 11 -15 11 -19 0 -19 9 0 34 23 30 18 74 -10 101 -28 29 -51 31 -82 10z m69 -22 c37 -33 16 -103 -31 -103 -20 0 -31 7 -39 25 -16 34 -15 46 4 73 18 26 41 28 66 5z"
       id="path48" />
    <path
       d="M2183 5523 c-7 -2 -13 -9 -13 -14 0 -6 5 -7 10 -4 6 4 10 -18 10 -59 0 -37 4 -66 10 -66 6 0 10 32 10 75 0 73 -2 79 -27 68z"
       id="path49" />
    <path
       d="M1870 3860 c0 -47 4 -80 10 -80 6 0 10 13 10 28 0 25 5 29 43 38 37 8 42 13 45 39 5 37 -19 55 -70 55 l-38 0 0 -80z m88 36 c5 -22 -13 -36 -45 -36 -19 0 -23 5 -23 31 0 28 2 30 32 27 23 -2 34 -9 36 -22z"
       id="path50" />
    <path
       d="M2001 3930 c0 -30 36 -144 47 -148 6 -2 18 24 28 57 9 33 20 59 24 56 3 -2 13 -29 20 -60 7 -30 18 -55 25 -55 10 0 45 110 45 145 0 33 -17 4 -30 -52 l-13 -58 -17 52 c-22 72 -36 85 -50 47 -6 -16 -14 -41 -17 -56 -8 -40 -22 -34 -29 12 -7 41 -33 89 -33 60z"
       id="path51" />
    <path
       d="M2217 3934 c-11 -11 -8 -154 3 -154 6 0 10 26 10 57 0 64 8 63 31 -5 8 -25 20 -47 26 -49 6 -2 20 22 31 54 l20 58 1 -57 c1 -32 6 -58 11 -58 6 0 10 34 10 81 0 97 -15 102 -45 16 -11 -31 -22 -57 -25 -57 -3 0 -14 26 -25 57 -19 54 -33 71 -48 57z"
       id="path52" />
    <path
       d="M7770 3410 c0 -5 5 -10 10 -10 6 0 10 5 10 10 0 6 -4 10 -10 10 -5 0 -10 -4 -10 -10z"
       id="path53" />
    <path
       d="M8280 2410 c0 -40 4 -70 10 -70 6 0 10 14 10 30 0 20 5 30 15 30 15 0 55 -38 55 -52 0 -4 7 -8 16 -8 13 0 12 5 -5 29 -18 25 -19 30 -6 41 18 15 19 42 3 58 -7 7 -31 12 -55 12 l-43 0 0 -70z m88 28 c3 -15 -4 -18 -32 -18 -30 0 -36 4 -36 21 0 17 5 20 32 17 22 -2 34 -9 36 -20z"
       id="path54" />
    <path
       d="M8420 2410 l0 -70 58 2 57 1 -45 6 c-37 5 -46 10 -48 29 -3 20 1 22 37 22 23 0 41 5 41 10 0 6 -18 10 -40 10 -33 0 -40 3 -40 20 0 17 7 20 40 20 22 0 40 5 40 10 0 6 -22 10 -50 10 l-50 0 0 -70z"
       id="path55" />
    <path
       d="M8550 2410 c0 -40 4 -70 10 -70 6 0 10 14 10 30 0 28 3 30 35 30 19 0 35 5 35 10 0 6 -16 10 -35 10 -28 0 -35 4 -35 20 0 17 7 20 40 20 22 0 40 5 40 10 0 6 -22 10 -50 10 l-50 0 0 -70z"
       id="path56" />
    <path
       d="M4627 1903 c-11 -10 -8 -133 3 -133 6 0 10 30 10 70 0 70 -1 76 -13 63z"
       id="path57" />
    <path
       d="M4542 1888 c-19 -19 -14 -46 13 -64 29 -19 24 -34 -13 -34 -18 0 -23 -3 -15 -11 6 -6 23 -9 39 -7 40 4 44 39 9 66 -30 24 -25 46 8 36 19 -6 20 -5 8 10 -16 19 -32 21 -49 4z"
       id="path58" />
    <path
       d="M5966 1893 c-11 -11 -6 -23 9 -23 8 0 15 4 15 9 0 13 -16 22 -24 14z"
       id="path59" />
    <path
       d="M5893 1860 c-8 -12 -9 -21 -3 -25 6 -3 10 -19 10 -36 0 -22 5 -29 20 -29 11 0 20 5 20 10 0 6 -4 10 -10 10 -16 0 -11 40 6 47 13 5 12 8 -5 24 -25 23 -24 23 -38 -1z"
       id="path60" />
    <path
       d="M4692 1853 c-22 -9 -34 -41 -22 -63 12 -23 59 -27 78 -8 36 36 -7 91 -56 71z m38 -28 c15 -18 5 -35 -21 -35 -12 0 -19 7 -19 18 0 33 20 42 40 17z"
       id="path61" />
    <path
       d="M4803 1853 c-21 -4 -23 -10 -23 -64 0 -46 3 -59 15 -59 8 0 15 9 15 20 0 13 7 20 18 20 41 0 59 60 23 80 -11 5 -21 9 -23 9 -2 -1 -13 -4 -25 -6z m37 -44 c0 -10 -7 -19 -15 -19 -15 0 -21 31 -9 43 11 10 24 -3 24 -24z"
       id="path62" />
    <path
       d="M4906 1847 c-12 -9 -17 -23 -14 -42 2 -25 8 -31 32 -33 16 -2 33 1 39 7 8 8 2 11 -22 11 -19 0 -30 4 -26 10 3 6 17 10 31 10 29 0 32 25 5 40 -25 13 -24 13 -45 -3z m34 -11 c0 -3 -4 -8 -10 -11 -5 -3 -10 -1 -10 4 0 6 5 11 10 11 6 0 10 -2 10 -4z"
       id="path63" />
    <path
       d="M5056 1847 c-27 -20 -18 -71 13 -75 13 -2 28 1 34 7 8 8 3 11 -17 11 -23 0 -27 4 -24 23 2 17 9 21 27 19 20 -2 22 0 11 13 -15 18 -21 19 -44 2z"
       id="path64" />
    <path
       d="M5136 1847 c-12 -9 -17 -23 -14 -42 2 -24 8 -31 31 -33 16 -2 35 2 43 9 20 17 17 56 -5 69 -25 13 -33 13 -55 -3z m44 -22 c15 -18 5 -35 -21 -35 -12 0 -19 7 -19 18 0 33 20 42 40 17z"
       id="path65" />
    <path
       d="M5234 1851 c-2 -2 -4 -22 -4 -43 0 -49 27 -54 32 -5 2 17 8 32 13 32 6 0 11 -15 13 -32 4 -38 22 -45 22 -9 0 13 7 29 15 36 12 10 15 7 21 -14 3 -13 3 -30 -1 -35 -3 -6 1 -11 9 -11 20 0 22 65 4 77 -14 8 -116 11 -124 4z"
       id="path66" />
    <path
       d="M5395 1851 c-3 -2 -5 -31 -5 -63 0 -45 3 -58 15 -58 8 0 15 9 15 20 0 15 7 20 25 20 18 0 26 7 31 27 10 36 -7 58 -45 58 -18 1 -34 -1 -36 -4z m61 -50 c-11 -18 -36 -13 -36 7 0 10 3 22 7 26 10 10 37 -20 29 -33z"
       id="path67" />
    <path
       d="M5516 1847 c-12 -9 -17 -23 -14 -42 2 -25 8 -31 32 -33 16 -2 33 1 39 7 8 8 2 11 -22 11 -19 0 -30 4 -26 10 3 6 17 10 31 10 26 0 32 18 12 38 -15 15 -30 15 -52 -1z m34 -11 c0 -3 -4 -8 -10 -11 -5 -3 -10 -1 -10 4 0 6 5 11 10 11 6 0 10 -2 10 -4z"
       id="path68" />
    <path
       d="M5604 1851 c-2 -2 -4 -22 -4 -43 0 -49 27 -54 32 -5 2 17 8 32 13 32 6 0 11 -15 13 -32 2 -21 9 -33 18 -33 18 0 19 63 2 78 -12 10 -65 12 -74 3z"
       id="path69" />
    <path
       d="M5723 1853 c-21 -8 -15 -39 10 -51 l22 -11 -22 0 c-35 -1 -27 -21 7 -21 37 0 41 29 8 54 l-23 17 23 -6 c25 -7 31 10 6 19 -9 3 -16 6 -17 5 -1 0 -8 -3 -14 -6z"
       id="path70" />
    <path
       d="M5803 1853 c-24 -9 -13 -23 15 -18 l27 6 -28 -16 c-40 -23 -32 -49 16 -53 36 -3 37 -3 37 32 0 44 -29 65 -67 49z m37 -53 c0 -5 -7 -10 -16 -10 -8 0 -12 5 -9 10 3 6 10 10 16 10 5 0 9 -4 9 -10z"
       id="path71" />
    <path
       d="M5966 1853 c-3 -3 -6 -24 -6 -45 0 -27 4 -38 15 -38 11 0 15 11 15 39 0 38 -10 57 -24 44z"
       id="path72" />
    <path
       d="M6025 1844 c-9 -9 -15 -28 -13 -43 3 -23 7 -26 43 -26 37 0 40 2 43 30 6 47 -40 71 -73 39z m53 -27 c4 -21 -25 -34 -40 -19 -8 8 -8 16 2 27 16 19 34 15 38 -8z"
       id="path73" />
    <path
       d="M6124 1851 c-2 -2 -4 -22 -4 -43 0 -27 4 -38 15 -38 10 0 15 10 15 29 0 17 5 33 11 37 15 9 30 -16 26 -43 -3 -15 1 -23 9 -23 18 0 19 64 2 78 -12 10 -65 12 -74 3z"
       id="path74" />
    <path
       d="M2049 1453 c0 -5 -1 -46 -2 -93 l-2 -85 -42 -3 c-24 -2 -43 -7 -43 -13 0 -5 186 -9 480 -9 313 0 480 3 480 10 0 6 -25 10 -55 10 l-55 0 0 95 c0 78 -3 95 -15 95 -12 0 -15 -17 -15 -95 l0 -95 -60 0 -60 0 0 96 c0 72 -3 95 -12 92 -9 -3 -14 -34 -16 -96 l-3 -92 -59 0 -60 0 0 95 c0 123 -18 125 -22 3 l-3 -93 -60 0 -60 0 -3 93 c-1 50 -7 92 -12 92 -5 0 -11 -42 -12 -92 l-3 -93 -57 -3 -57 -3 -3 92 c-2 63 -7 94 -15 97 -10 3 -13 -20 -13 -92 l0 -96 -60 0 -60 0 0 95 c0 57 -4 95 -10 95 -5 0 -10 -3 -11 -7z"
       id="path75" />
    <path
       d="M3640 675 c-21 -22 -20 -30 3 -26 4 0 7 -105 7 -234 l0 -235 830 0 c731 0 830 -2 830 -15 0 -21 14 -19 35 5 18 20 18 21 -8 48 -27 26 -27 26 -27 4 0 -30 -38 -30 -45 1 -3 12 -5 100 -3 195 l3 172 -57 0 c-55 0 -58 -1 -58 -25 0 -22 -4 -25 -40 -25 -33 0 -40 -3 -40 -20 0 -11 -6 -20 -12 -21 -7 0 -26 -2 -43 -2 -23 -2 -31 -7 -33 -24 -3 -20 -9 -23 -48 -23 -40 0 -44 -2 -44 -25 0 -23 -4 -25 -45 -25 -41 0 -45 -2 -45 -25 0 -23 -4 -25 -45 -25 -41 0 -45 -2 -45 -25 0 -23 -4 -25 -45 -25 -41 0 -45 -2 -45 -25 0 -22 -4 -25 -40 -25 -33 0 -40 -3 -40 -20 0 -16 -7 -20 -35 -20 l-35 0 0 190 0 190 -54 0 c-49 0 -55 -2 -58 -22 -2 -19 -10 -24 -45 -26 -34 -3 -42 -7 -45 -24 -2 -18 -10 -22 -43 -22 -33 -1 -41 -5 -43 -23 -3 -18 -11 -22 -45 -25 -34 -2 -43 -7 -45 -25 -3 -18 -11 -22 -45 -25 -34 -2 -42 -7 -42 -23 0 -16 -8 -21 -42 -23 -38 -3 -43 -6 -43 -28 0 -22 -4 -24 -45 -24 -41 0 -45 -2 -45 -25 0 -23 -4 -25 -45 -25 -38 0 -45 -3 -45 -20 0 -16 -7 -20 -30 -20 l-30 0 0 221 c0 133 4 218 9 214 21 -12 19 14 -3 34 l-22 21 -24 -25z m808 -287 l-3 -183 -320 -3 c-176 -1 -330 0 -343 3 -34 8 -16 25 28 25 32 0 39 4 42 23 2 18 10 23 45 25 34 3 42 7 45 25 2 18 11 23 46 25 33 3 42 7 42 22 0 15 9 19 43 22 34 2 43 7 45 25 3 18 11 22 45 25 35 2 43 7 45 26 3 18 10 22 43 22 35 0 39 3 39 25 0 23 4 25 45 25 41 0 45 2 45 25 0 22 4 25 35 25 l35 0 -2 -182z m790 0 l-3 -183 -334 0 c-259 0 -335 3 -338 13 -3 8 9 12 41 12 42 0 46 2 46 25 0 23 4 25 45 25 41 0 45 2 45 25 0 23 4 25 40 25 33 0 40 3 40 19 0 16 8 20 43 23 34 2 43 7 45 25 3 18 11 22 45 25 35 2 43 7 45 26 3 19 9 22 48 22 40 0 44 2 44 24 0 22 5 25 43 28 35 2 43 7 45 26 3 17 10 22 33 22 l29 0 -2 -182z"
       id="path76" />
    <text
       xml:space="preserve"
       style="font-size:250px;fill:#000000;stroke:#000000;stroke-width:0;stroke-miterlimit:3.8;stroke-dasharray:none"
       x="4920.2119"
       y="-5981.5859"
       id="text76"
       transform="scale(1,-1)"><tspan
         sodipodi:role="line"
         id="tspan76"
         style="font-size:230px;stroke-width:0;stroke-dasharray:none"
         x="4920.2119"
         y="-5981.5859">L</tspan><tspan
         sodipodi:role="line"
         style="font-size:250px;stroke-width:0;stroke-dasharray:none"
         x="4920.2119"
         y="-5669.0859"
         id="tspan77" /></text>
  </g>
</svg>
