<?xml version="1.0" encoding="UTF-8" standalone="no"?>

<svg
   version="1.0"
   width="792.000000pt"
   height="807.000000pt"
   viewBox="0 0 792.000000 807.000000"
   preserveAspectRatio="xMidYMid meet"
   id="svg205"
   sodipodi:docname="Capture-dՎcran-du-2024-04-24-12-13-23.svg"
   inkscape:version="1.3.2 (091e20e, 2023-11-25)"
   xmlns:inkscape="http://www.inkscape.org/namespaces/inkscape"
   xmlns:sodipodi="http://sodipodi.sourceforge.net/DTD/sodipodi-0.dtd"
   xmlns="http://www.w3.org/2000/svg"
   xmlns:svg="http://www.w3.org/2000/svg">
 <style>
    path {
    fill: black;
    }
    text {
    fill: black;
    }
    @media (prefers-color-scheme: dark) {
    path {
    fill: white;
    }
    text {
    fill: white ;
    }
    }
  </style>
  <defs
     id="defs205" />
  <sodipodi:namedview
     id="namedview205"
     pagecolor="#ffffff"
     bordercolor="#000000"
     borderopacity="0.25"
     inkscape:showpageshadow="2"
     inkscape:pageopacity="0.0"
     inkscape:pagecheckerboard="0"
     inkscape:deskcolor="#d1d1d1"
     inkscape:document-units="pt"
     inkscape:zoom="0.64304585"
     inkscape:cx="580.8295"
     inkscape:cy="519.40309"
     inkscape:window-width="1850"
     inkscape:window-height="1016"
     inkscape:window-x="70"
     inkscape:window-y="27"
     inkscape:window-maximized="1"
     inkscape:current-layer="g205" />
  <g
     transform="translate(0.000000,807.000000) scale(0.100000,-0.100000)"
     fill="#000000"
     stroke="none"
     id="g205">
    <path
       d="M1342 7973 c-6 -16 -20 -52 -31 -81 l-21 -53 30 16 30 16 0 -1315 0 -1315 -62 -4 -63 -3 63 -2 62 -2 -2 -707 -3 -708 -60 -6 -60 -6 63 -1 62 -2 0 -705 0 -705 -60 0 c-33 0 -60 -4 -60 -10 0 -6 27 -10 60 -10 l60 0 2 -987 c1 -544 4 -947 7 -898 l6 90 3178 3 3178 2 -11 -21 c-7 -11 -9 -23 -6 -26 3 -3 37 7 75 23 39 16 67 32 63 35 -11 11 -136 59 -140 55 -2 -3 1 -14 8 -25 l11 -21 -686 0 -685 0 0 610 0 610 -970 0 -970 0 0 -610 0 -610 -555 0 -555 0 0 610 0 610 -967 2 -968 3 -3 273 -2 272 949 0 950 0 4 -48 3 -47 2 48 2 47 574 0 575 0 4 -47 3 -48 2 48 2 47 949 0 950 0 4 -48 3 -47 2 48 2 47 565 0 565 0 0 -45 c0 -25 5 -45 10 -45 6 0 10 20 10 45 l0 45 51 0 c41 0 50 -3 45 -15 -3 -8 -9 -21 -12 -29 -4 -10 19 -4 70 17 42 17 73 34 68 38 -12 12 -134 60 -139 55 -2 -2 0 -14 7 -25 l11 -21 -1531 0 -1530 0 0 610 0 610 -60 0 -60 0 0 -610 0 -610 -1470 0 -1470 0 0 610 0 610 -55 0 -56 0 3 93 3 92 947 3 947 2 4 -47 3 -48 2 48 2 47 574 0 575 0 4 -47 3 -48 2 48 2 47 949 0 950 0 4 -47 3 -48 2 48 2 47 565 0 565 0 0 -45 c0 -25 5 -45 10 -45 6 0 10 20 10 45 l0 45 51 0 c41 0 50 -3 45 -15 -3 -8 -9 -22 -12 -30 -4 -11 14 -6 67 15 40 17 75 32 77 35 4 4 -45 27 -112 51 -33 12 -37 12 -32 -1 20 -48 60 -45 -555 -43 l-574 3 -3 613 -2 612 -60 0 -60 0 -2 -612 -3 -613 -1472 -3 -1473 -2 0 615 0 615 -60 0 -60 0 0 -615 0 -615 -942 2 -943 3 0 705 0 705 945 0 945 0 6 -50 6 -50 1 53 2 52 573 -2 572 -3 6 -50 6 -50 1 53 2 52 948 -2 947 -3 6 -50 6 -50 1 53 2 52 565 0 565 0 0 -45 c0 -25 5 -45 10 -45 6 0 10 20 10 45 l0 45 51 0 c41 0 50 -3 45 -15 -3 -8 -9 -22 -12 -30 -5 -13 1 -13 42 4 27 10 62 25 77 32 33 15 29 18 -65 55 -63 25 -61 26 -41 -24 4 -10 -619 -12 -3108 -10 l-3114 3 -3 477 -2 477 82 40 c46 21 211 100 368 176 157 76 330 159 385 185 92 44 399 191 725 348 233 112 342 162 350 162 5 0 264 -205 577 -456 428 -344 570 -463 574 -483 6 -25 7 -24 8 7 0 17 5 32 10 32 4 0 93 41 197 91 239 115 655 316 799 384 61 29 220 105 355 170 483 232 532 255 541 255 5 0 262 -203 572 -451 427 -342 563 -457 565 -475 6 -41 22 -26 22 20 0 33 -4 45 -17 48 -15 4 -400 310 -973 772 l-125 101 555 5 555 5 -570 3 c-313 1 -1690 3 -3060 5 l-2490 2 -3 364 c-2 321 0 363 13 357 8 -3 22 -9 30 -12 13 -5 12 3 -6 47 -11 30 -25 64 -30 77 -11 29 -15 28 -27 -5z m1853 -855 c-18 -11 -482 -235 -740 -358 -55 -26 -208 -99 -340 -163 -545 -261 -746 -357 -750 -357 -8 0 -6 876 2 883 3 4 421 7 927 7 703 -1 916 -3 901 -12z m3069 4 c-5 -5 -94 -50 -199 -99 -274 -131 -941 -451 -1144 -549 -95 -46 -175 -84 -176 -84 -2 0 -72 -33 -156 -74 -139 -68 -155 -74 -180 -63 -30 13 -1088 858 -1088 870 -1 4 664 7 1476 7 812 0 1473 -4 1467 -8z m-2914 -2712 l0 -600 -40 0 -40 0 0 600 0 600 40 0 40 0 0 -600z m3070 0 l0 -600 -35 0 -35 0 0 600 0 600 35 0 35 0 0 -600z m-4976 -836 c3 -9 6 -281 6 -605 l0 -589 -35 0 -35 0 0 605 0 605 29 0 c17 0 31 -6 35 -16z m3064 -591 l2 -603 -35 0 -35 0 0 606 0 605 33 -3 32 -3 3 -602z m-1258 -1788 l0 -595 -930 0 -930 0 0 595 0 595 930 0 930 0 0 -595z m3060 0 l0 -595 -935 0 -935 0 0 595 0 595 935 0 935 0 0 -595z"
       id="path1" />
    <path
       d="M4423 7020 c0 -30 2 -43 4 -27 2 15 2 39 0 55 -2 15 -4 2 -4 -28z"
       id="path2" />
    <path
       d="M4423 6820 c0 -30 2 -43 4 -27 2 15 2 39 0 55 -2 15 -4 2 -4 -28z"
       id="path3" />
    <path
       d="M4423 6610 c0 -30 2 -43 4 -27 2 15 2 39 0 55 -2 15 -4 2 -4 -28z"
       id="path4" />
    <path
       d="M4423 6410 c0 -30 2 -43 4 -27 2 15 2 39 0 55 -2 15 -4 2 -4 -28z"
       id="path5" />
    <path
       d="M3263 7840 c0 -30 2 -43 4 -27 2 15 2 39 0 55 -2 15 -4 2 -4 -28z"
       id="path6" />
    <path
       d="M4423 7840 c0 -30 2 -43 4 -27 2 15 2 39 0 55 -2 15 -4 2 -4 -28z"
       id="path7" />
    <path
       d="M6333 7840 c0 -30 2 -43 4 -27 2 15 2 39 0 55 -2 15 -4 2 -4 -28z"
       id="path8" />
    <path
       d="M7470 7841 c0 -28 5 -51 10 -51 6 0 10 20 10 44 0 25 -4 48 -10 51 -6 4 -10 -13 -10 -44z"
       id="path9" />
    <path
       d="M3263 7630 c0 -30 2 -43 4 -27 2 15 2 39 0 55 -2 15 -4 2 -4 -28z"
       id="path13" />
    <path
       d="M4423 7630 c0 -30 2 -43 4 -27 2 15 2 39 0 55 -2 15 -4 2 -4 -28z"
       id="path14" />
    <path
       d="M6333 7630 c0 -30 2 -43 4 -27 2 15 2 39 0 55 -2 15 -4 2 -4 -28z"
       id="path15" />
    <path
       d="M7470 7635 c0 -25 5 -45 10 -45 6 0 10 20 10 45 0 25 -4 45 -10 45 -5 0 -10 -20 -10 -45z"
       id="path16" />
    <path
       d="M3263 7430 c0 -30 2 -43 4 -27 2 15 2 39 0 55 -2 15 -4 2 -4 -28z"
       id="path36" />
    <path
       d="M4423 7430 c0 -30 2 -43 4 -27 2 15 2 39 0 55 -2 15 -4 2 -4 -28z"
       id="path37" />
    <path
       d="M6333 7430 c0 -30 2 -43 4 -27 2 15 2 39 0 55 -2 15 -4 2 -4 -28z"
       id="path38" />
    <path
       d="M7470 7430 c0 -27 5 -50 10 -50 6 0 10 23 10 50 0 28 -4 50 -10 50 -5 0 -10 -22 -10 -50z"
       id="path39" />
    <path
       d="M2330 7297 c0 -32 -19 -35 -45 -7 -10 11 -25 20 -34 20 -10 0 -2 -12 23 -33 l38 -33 -28 -13 -29 -14 70 -18 c39 -10 76 -19 83 -19 14 0 -36 99 -64 130 -12 12 -14 11 -14 -13z"
       id="path50" />
    <path
       d="M3263 7220 c0 -30 2 -43 4 -27 2 15 2 39 0 55 -2 15 -4 2 -4 -28z"
       id="path51" />
    <path
       d="M4423 7220 c0 -30 2 -43 4 -27 2 15 2 39 0 55 -2 15 -4 2 -4 -28z"
       id="path52" />
    <path
       d="M6333 7220 c0 -30 2 -43 4 -27 2 15 2 39 0 55 -2 15 -4 2 -4 -28z"
       id="path53" />
    <path
       d="M7470 7225 c0 -25 5 -45 10 -45 6 0 10 20 10 45 0 25 -4 45 -10 45 -5 0 -10 -20 -10 -45z"
       id="path54" />
    <path
       d="M3263 7020 c0 -30 2 -43 4 -27 2 15 2 39 0 55 -2 15 -4 2 -4 -28z"
       id="path55" />
    <path
       d="M6333 7020 c0 -30 2 -43 4 -27 2 15 2 39 0 55 -2 15 -4 2 -4 -28z"
       id="path56" />
    <path
       d="M7470 7020 c0 -27 5 -50 10 -50 6 0 10 23 10 50 0 28 -4 50 -10 50 -5 0 -10 -22 -10 -50z"
       id="path57" />
    <path
       d="M3263 6820 c0 -30 2 -43 4 -27 2 15 2 39 0 55 -2 15 -4 2 -4 -28z"
       id="path58" />
    <path
       d="M6333 6820 c0 -30 2 -43 4 -27 2 15 2 39 0 55 -2 15 -4 2 -4 -28z"
       id="path59" />
    <path
       d="M7470 6815 c0 -25 5 -45 10 -45 6 0 10 20 10 45 0 25 -4 45 -10 45 -5 0 -10 -20 -10 -45z"
       id="path60" />
    <path
       d="M3263 6610 c0 -30 2 -43 4 -27 2 15 2 39 0 55 -2 15 -4 2 -4 -28z"
       id="path61" />
    <path
       d="M6333 6610 c0 -30 2 -43 4 -27 2 15 2 39 0 55 -2 15 -4 2 -4 -28z"
       id="path62" />
    <path
       d="M7470 6615 c0 -25 5 -45 10 -45 6 0 10 20 10 45 0 25 -4 45 -10 45 -5 0 -10 -20 -10 -45z"
       id="path63" />
    <path
       d="M3263 6410 c0 -30 2 -43 4 -27 2 15 2 39 0 55 -2 15 -4 2 -4 -28z"
       id="path64" />
    <path
       d="M6333 6410 c0 -30 2 -43 4 -27 2 15 2 39 0 55 -2 15 -4 2 -4 -28z"
       id="path65" />
    <path
       d="M7470 6410 c0 -27 5 -50 10 -50 6 0 10 23 10 50 0 28 -4 50 -10 50 -5 0 -10 -22 -10 -50z"
       id="path66" />
    <path
       d="M3263 6200 c0 -30 2 -43 4 -27 2 15 2 39 0 55 -2 15 -4 2 -4 -28z"
       id="path73" />
    <path
       d="M6333 6200 c0 -30 2 -43 4 -27 2 15 2 39 0 55 -2 15 -4 2 -4 -28z"
       id="path74" />
    <path
       d="M3263 6000 c0 -30 2 -43 4 -27 2 15 2 39 0 55 -2 15 -4 2 -4 -28z"
       id="path78" />
    <path
       d="M4423 6000 c0 -30 2 -43 4 -27 2 15 2 39 0 55 -2 15 -4 2 -4 -28z"
       id="path79" />
    <path
       d="M6333 6000 c0 -30 2 -43 4 -27 2 15 2 39 0 55 -2 15 -4 2 -4 -28z"
       id="path80" />
    <path
       d="M7470 6000 c0 -27 5 -50 10 -50 6 0 10 23 10 50 0 28 -4 50 -10 50 -5 0 -10 -22 -10 -50z"
       id="path81" />
    <path
       d="M3263 5800 c0 -30 2 -43 4 -27 2 15 2 39 0 55 -2 15 -4 2 -4 -28z"
       id="path82" />
    <path
       d="M4423 5800 c0 -30 2 -43 4 -27 2 15 2 39 0 55 -2 15 -4 2 -4 -28z"
       id="path83" />
    <path
       d="M6333 5800 c0 -30 2 -43 4 -27 2 15 2 39 0 55 -2 15 -4 2 -4 -28z"
       id="path84" />
    <path
       d="M7470 5795 c0 -25 5 -45 10 -45 6 0 10 20 10 45 0 25 -4 45 -10 45 -5 0 -10 -20 -10 -45z"
       id="path85" />
    <path
       d="M3263 5590 c0 -30 2 -43 4 -27 2 15 2 39 0 55 -2 15 -4 2 -4 -28z"
       id="path86" />
    <path
       d="M4423 5590 c0 -30 2 -43 4 -27 2 15 2 39 0 55 -2 15 -4 2 -4 -28z"
       id="path87" />
    <path
       d="M6333 5590 c0 -30 2 -43 4 -27 2 15 2 39 0 55 -2 15 -4 2 -4 -28z"
       id="path88" />
    <path
       d="M7470 5595 c0 -25 5 -45 10 -45 6 0 10 20 10 45 0 25 -4 45 -10 45 -5 0 -10 -20 -10 -45z"
       id="path89" />
    <path
       d="M3263 5390 c0 -30 2 -43 4 -27 2 15 2 39 0 55 -2 15 -4 2 -4 -28z"
       id="path92" />
    <path
       d="M4423 5390 c0 -30 2 -43 4 -27 2 15 2 39 0 55 -2 15 -4 2 -4 -28z"
       id="path93" />
    <path
       d="M6333 5390 c0 -30 2 -43 4 -27 2 15 2 39 0 55 -2 15 -4 2 -4 -28z"
       id="path94" />
    <path
       d="M7470 5390 c0 -27 5 -50 10 -50 6 0 10 23 10 50 0 28 -4 50 -10 50 -5 0 -10 -22 -10 -50z"
       id="path95" />
    <path
       d="M4423 4980 c0 -30 2 -43 4 -27 2 15 2 39 0 55 -2 15 -4 2 -4 -28z"
       id="path96" />
    <path
       d="M7470 4980 c0 -27 5 -50 10 -50 6 0 10 23 10 50 0 28 -4 50 -10 50 -5 0 -10 -22 -10 -50z"
       id="path97" />
    <path
       d="M4423 4780 c0 -30 2 -43 4 -27 2 15 2 39 0 55 -2 15 -4 2 -4 -28z"
       id="path98" />
    <path
       d="M7470 4775 c0 -25 5 -45 10 -45 6 0 10 20 10 45 0 25 -4 45 -10 45 -5 0 -10 -20 -10 -45z"
       id="path99" />
    <path
       d="M4423 4570 c0 -30 2 -43 4 -27 2 15 2 39 0 55 -2 15 -4 2 -4 -28z"
       id="path100" />
    <path
       d="M7470 4575 c0 -25 5 -45 10 -45 6 0 10 20 10 45 0 25 -4 45 -10 45 -5 0 -10 -20 -10 -45z"
       id="path101" />
    <path
       d="M4423 4370 c0 -30 2 -43 4 -27 2 15 2 39 0 55 -2 15 -4 2 -4 -28z"
       id="path122" />
    <path
       d="M7470 4370 c0 -27 5 -50 10 -50 6 0 10 23 10 50 0 28 -4 50 -10 50 -5 0 -10 -22 -10 -50z"
       id="path123" />
    <path
       d="M4423 4160 c0 -30 2 -43 4 -27 2 15 2 39 0 55 -2 15 -4 2 -4 -28z"
       id="path138" />
    <path
       d="M7470 4165 c0 -25 5 -45 10 -45 6 0 10 20 10 45 0 25 -4 45 -10 45 -5 0 -10 -20 -10 -45z"
       id="path139" />
    <path
       d="M4423 3960 c0 -30 2 -43 4 -27 2 15 2 39 0 55 -2 15 -4 2 -4 -28z"
       id="path142" />
    <path
       d="M7470 3960 c0 -27 5 -50 10 -50 6 0 10 23 10 50 0 28 -4 50 -10 50 -5 0 -10 -22 -10 -50z"
       id="path143" />
    <path
       d="M3263 3550 c0 -30 2 -43 4 -27 2 15 2 39 0 55 -2 15 -4 2 -4 -28z"
       id="path144" />
    <path
       d="M6333 3550 c0 -30 2 -43 4 -27 2 15 2 39 0 55 -2 15 -4 2 -4 -28z"
       id="path145" />
    <path
       d="M7470 3555 c0 -25 5 -45 10 -45 6 0 10 20 10 45 0 25 -4 45 -10 45 -5 0 -10 -20 -10 -45z"
       id="path146" />
    <path
       d="M3263 3350 c0 -30 2 -43 4 -27 2 15 2 39 0 55 -2 15 -4 2 -4 -28z"
       id="path147" />
    <path
       d="M6333 3350 c0 -30 2 -43 4 -27 2 15 2 39 0 55 -2 15 -4 2 -4 -28z"
       id="path148" />
    <path
       d="M7470 3350 c0 -27 5 -50 10 -50 6 0 10 23 10 50 0 28 -4 50 -10 50 -5 0 -10 -22 -10 -50z"
       id="path149" />
    <path
       d="M3263 3140 c0 -30 2 -43 4 -27 2 15 2 39 0 55 -2 15 -4 2 -4 -28z"
       id="path150" />
    <path
       d="M6333 3140 c0 -30 2 -43 4 -27 2 15 2 39 0 55 -2 15 -4 2 -4 -28z"
       id="path151" />
    <path
       d="M7470 3145 c0 -25 5 -45 10 -45 6 0 10 20 10 45 0 25 -4 45 -10 45 -5 0 -10 -20 -10 -45z"
       id="path152" />
    <path
       d="M3263 2940 c0 -30 2 -43 4 -27 2 15 2 39 0 55 -2 15 -4 2 -4 -28z"
       id="path153" />
    <path
       d="M6333 2940 c0 -30 2 -43 4 -27 2 15 2 39 0 55 -2 15 -4 2 -4 -28z"
       id="path154" />
    <path
       d="M7470 2940 c0 -27 5 -50 10 -50 6 0 10 23 10 50 0 28 -4 50 -10 50 -5 0 -10 -22 -10 -50z"
       id="path155" />
    <path
       d="M3263 2740 c0 -30 2 -43 4 -27 2 15 2 39 0 55 -2 15 -4 2 -4 -28z"
       id="path165" />
    <path
       d="M6333 2740 c0 -30 2 -43 4 -27 2 15 2 39 0 55 -2 15 -4 2 -4 -28z"
       id="path166" />
    <path
       d="M7470 2735 c0 -25 5 -45 10 -45 6 0 10 20 10 45 0 25 -4 45 -10 45 -5 0 -10 -20 -10 -45z"
       id="path167" />
    <path
       d="M3263 2530 c0 -30 2 -43 4 -27 2 15 2 39 0 55 -2 15 -4 2 -4 -28z"
       id="path171" />
    <path
       d="M6333 2530 c0 -30 2 -43 4 -27 2 15 2 39 0 55 -2 15 -4 2 -4 -28z"
       id="path172" />
    <path
       d="M7470 2535 c0 -25 5 -45 10 -45 6 0 10 20 10 45 0 25 -4 45 -10 45 -5 0 -10 -20 -10 -45z"
       id="path173" />
    <path
       d="M3263 2120 c0 -30 2 -43 4 -27 2 15 2 39 0 55 -2 15 -4 2 -4 -28z"
       id="path174" />
    <path
       d="M4423 2120 c0 -30 2 -43 4 -27 2 15 2 39 0 55 -2 15 -4 2 -4 -28z"
       id="path175" />
    <path
       d="M6333 2120 c0 -30 2 -43 4 -27 2 15 2 39 0 55 -2 15 -4 2 -4 -28z"
       id="path176" />
    <path
       d="M7470 2125 c0 -25 5 -45 10 -45 6 0 10 20 10 45 0 25 -4 45 -10 45 -5 0 -10 -20 -10 -45z"
       id="path177" />
    <path
       d="M3263 1920 c0 -30 2 -43 4 -27 2 15 2 39 0 55 -2 15 -4 2 -4 -28z"
       id="path178" />
    <path
       d="M4423 1920 c0 -30 2 -43 4 -27 2 15 2 39 0 55 -2 15 -4 2 -4 -28z"
       id="path179" />
    <path
       d="M6333 1920 c0 -30 2 -43 4 -27 2 15 2 39 0 55 -2 15 -4 2 -4 -28z"
       id="path180" />
    <path
       d="M7470 1920 c0 -27 5 -50 10 -50 6 0 10 23 10 50 0 28 -4 50 -10 50 -5 0 -10 -22 -10 -50z"
       id="path181" />
    <path
       d="M7470 1715 c0 -25 5 -45 10 -45 6 0 10 20 10 45 0 25 -4 45 -10 45 -5 0 -10 -20 -10 -45z"
       id="path182" />
    <path
       d="M7470 1515 c0 -25 5 -45 10 -45 6 0 10 20 10 45 0 25 -4 45 -10 45 -5 0 -10 -20 -10 -45z"
       id="path183" />
    <path
       d="M7470 1310 c0 -27 5 -50 10 -50 6 0 10 23 10 50 0 28 -4 50 -10 50 -5 0 -10 -22 -10 -50z"
       id="path184" />
    <path
       d="M7470 1105 c0 -25 5 -45 10 -45 6 0 10 20 10 45 0 25 -4 45 -10 45 -5 0 -10 -20 -10 -45z"
       id="path185" />
    <path
       d="M7470 900 c0 -27 5 -50 10 -50 6 0 10 23 10 50 0 28 -4 50 -10 50 -5 0 -10 -22 -10 -50z"
       id="path194" />
    <path
       d="M7470 695 c0 -25 5 -45 10 -45 6 0 10 20 10 45 0 25 -4 45 -10 45 -5 0 -10 -20 -10 -45z"
       id="path197" />
    <path
       d="M3263 500 c0 -25 2 -35 4 -22 2 12 2 32 0 45 -2 12 -4 2 -4 -23z"
       id="path198" />
    <path
       d="M4423 500 c0 -25 2 -35 4 -22 2 12 2 32 0 45 -2 12 -4 2 -4 -23z"
       id="path199" />
    <path
       d="M6333 500 c0 -25 2 -35 4 -22 2 12 2 32 0 45 -2 12 -4 2 -4 -23z"
       id="path200" />
    <path
       d="M7470 500 c0 -22 5 -40 10 -40 6 0 10 18 10 40 0 22 -4 40 -10 40 -5 0 -10 -18 -10 -40z"
       id="path201" />
    <path
       d="M4573 401 c-34 -14 -65 -29 -68 -32 -3 -4 11 -13 32 -22 21 -8 55 -23 77 -32 42 -18 41 -20 19 33 -4 9 263 12 1317 12 1171 0 1321 -2 1316 -15 -21 -52 -32 -52 88 -2 l58 24 -68 28 c-38 15 -75 30 -83 33 -11 4 -11 1 -2 -16 6 -11 11 -23 11 -26 0 -3 -594 -6 -1320 -6 -1303 0 -1321 0 -1310 19 20 38 17 38 -67 2z"
       id="path202" />
    <text
       xml:space="preserve"
       style="font-size:240px;fill:#000000;fill-opacity:1;stroke:#000000;stroke-width:8;stroke-miterlimit:3.8;stroke-dasharray:none;stroke-opacity:1"
       x="1362.2316"
       y="-7589.3687"
       id="text205"
       transform="scale(1,-1)"><tspan
         sodipodi:role="line"
         id="tspan205"
         style="font-size:240px;fill:#000000;fill-opacity:1;stroke:#000000;stroke-width:8;stroke-dasharray:none;stroke-opacity:1"
         x="1362.2316"
         y="-7589.3687">Controller</tspan><tspan
         sodipodi:role="line"
         style="font-size:240px;fill:#000000;fill-opacity:1;stroke:#000000;stroke-width:8;stroke-dasharray:none;stroke-opacity:1"
         x="1362.2316"
         y="-7289.3687"
         id="tspan206">Output</tspan><tspan
         sodipodi:role="line"
         style="font-size:240px;fill:#000000;fill-opacity:1;stroke:#000000;stroke-width:8;stroke-dasharray:none;stroke-opacity:1"
         x="1362.2316"
         y="-6989.3687"
         id="tspan207" /></text>
    <text
       xml:space="preserve"
       style="font-size:240px;fill:#000000;fill-opacity:1;stroke:#000000;stroke-width:8.00002;stroke-miterlimit:3.8;stroke-dasharray:none;stroke-opacity:1"
       x="57.877407"
       y="-6308.9053"
       id="text208"
       transform="scale(1,-1)"><tspan
         sodipodi:role="line"
         id="tspan208"
         style="stroke-width:8"
         x="57.877407"
         y="-6308.9053">Inductor</tspan><tspan
         sodipodi:role="line"
         style="stroke-width:8"
         x="57.877407"
         y="-6008.9053"
         id="tspan211">current (A)</tspan></text>
    <text
       xml:space="preserve"
       style="font-size:210px;fill:#000000;fill-opacity:1;stroke:#000000;stroke-width:8.00002;stroke-miterlimit:3.8;stroke-dasharray:none;stroke-opacity:1"
       x="37.989712"
       y="-4604.4541"
       id="text212"
       transform="scale(1,-1)"><tspan
         sodipodi:role="line"
         id="tspan212"
         style="font-size:210px;stroke-width:8"
         x="37.989712"
         y="-4604.4541">Comparator</tspan><tspan
         sodipodi:role="line"
         style="font-size:210px;stroke-width:8"
         x="37.989712"
         y="-4341.9541"
         id="tspan213">Output</tspan></text>
    <text
       xml:space="preserve"
       style="font-size:240px;fill:#000000;fill-opacity:1;stroke:#000000;stroke-width:8.00002;stroke-miterlimit:3.8;stroke-dasharray:none;stroke-opacity:1"
       x="268.01334"
       y="-2921.7705"
       id="text214"
       transform="scale(1,-1)"><tspan
         sodipodi:role="line"
         id="tspan214"
         style="font-size:240px;stroke-width:8"
         x="268.01334"
         y="-2921.7705">Clock </tspan></text>
    <text
       xml:space="preserve"
       style="font-size:240px;fill:#000000;fill-opacity:1;stroke:#000000;stroke-width:8.00002;stroke-miterlimit:3.8;stroke-dasharray:none;stroke-opacity:1"
       x="306.15787"
       y="-1182.9502"
       id="text215"
       transform="scale(1,-1)"><tspan
         sodipodi:role="line"
         id="tspan215"
         style="font-size:240px;stroke-width:8"
         x="306.15787"
         y="-1182.9502">PWM</tspan><tspan
         sodipodi:role="line"
         style="font-size:240px;stroke-width:8"
         x="306.15787"
         y="-882.9502"
         id="tspan216" /></text>
    <text
       xml:space="preserve"
       style="font-size:240px;fill:#000000;fill-opacity:1;stroke:#000000;stroke-width:8.00002;stroke-miterlimit:3.8;stroke-dasharray:none;stroke-opacity:1"
       x="1135.8918"
       y="-5222.7915"
       id="text217"
       transform="scale(1,-1)"><tspan
         sodipodi:role="line"
         id="tspan217"
         style="stroke-width:8"
         x="1135.8918"
         y="-5222.7915">0</tspan></text>
    <text
       xml:space="preserve"
       style="font-size:240px;fill:#000000;fill-opacity:1;stroke:#000000;stroke-width:8.00002;stroke-miterlimit:3.8;stroke-dasharray:none;stroke-opacity:1"
       x="1135.1484"
       y="-3838.7397"
       id="text217-3"
       transform="scale(1,-1)"><tspan
         sodipodi:role="line"
         id="tspan217-6"
         style="stroke-width:8"
         x="1135.1484"
         y="-3838.7397">0</tspan></text>
    <text
       xml:space="preserve"
       style="font-size:240px;fill:#000000;fill-opacity:1;stroke:#000000;stroke-width:8.00002;stroke-miterlimit:3.8;stroke-dasharray:none;stroke-opacity:1"
       x="1135.1484"
       y="-2408.7397"
       id="text217-7"
       transform="scale(1,-1)"><tspan
         sodipodi:role="line"
         id="tspan217-5"
         style="stroke-width:8"
         x="1135.1484"
         y="-2408.7397">0</tspan></text>
    <text
       xml:space="preserve"
       style="font-size:240px;fill:#000000;fill-opacity:1;stroke:#000000;stroke-width:8.00002;stroke-miterlimit:3.8;stroke-dasharray:none;stroke-opacity:1"
       x="1135.1484"
       y="-631.8042"
       id="text217-35"
       transform="scale(1,-1)"><tspan
         sodipodi:role="line"
         id="tspan217-62"
         style="stroke-width:8"
         x="1135.1484"
         y="-631.8042">0</tspan></text>
    <text
       xml:space="preserve"
       style="font-size:240px;fill:#000000;fill-opacity:1;stroke:#000000;stroke-width:8.00002;stroke-miterlimit:3.8;stroke-dasharray:none;stroke-opacity:1"
       x="6114.3047"
       y="-115.703"
       id="text218"
       transform="scale(1,-1)"><tspan
         sodipodi:role="line"
         id="tspan218"
         style="stroke-width:8"
         x="6114.3047"
         y="-115.703">Ts</tspan><tspan
         sodipodi:role="line"
         style="stroke-width:8"
         x="6114.3047"
         y="184.297"
         id="tspan219" /></text>
    <text
       xml:space="preserve"
       style="font-size:240px;fill:#000000;fill-opacity:1;stroke:#000000;stroke-width:8.00002;stroke-miterlimit:3.8;stroke-dasharray:none;stroke-opacity:1"
       x="7560.5049"
       y="-5355.7422"
       id="text217-9"
       transform="scale(1,-1)"><tspan
         sodipodi:role="line"
         id="tspan217-1"
         style="stroke-width:8"
         x="7560.5049"
         y="-5355.7422">t</tspan></text>
    <text
       xml:space="preserve"
       style="font-size:240px;fill:#000000;fill-opacity:1;stroke:#000000;stroke-width:8.00002;stroke-miterlimit:3.8;stroke-dasharray:none;stroke-opacity:1"
       x="8220.6201"
       y="-5682.1582"
       id="text220"
       transform="scale(1,-1)"><tspan
         sodipodi:role="line"
         id="tspan220"
         style="stroke-width:8"
         x="8220.6201"
         y="-5682.1582"></tspan><tspan
         sodipodi:role="line"
         style="stroke-width:8"
         id="tspan221"
         x="8220.6201"
         y="-5382.1582" /></text>
    <text
       xml:space="preserve"
       style="font-size:240px;fill:#000000;fill-opacity:1;stroke:#000000;stroke-width:8.00002;stroke-miterlimit:3.8;stroke-dasharray:none;stroke-opacity:1"
       x="7552.5977"
       y="-3946.1216"
       id="text217-9-2"
       transform="scale(1,-1)"><tspan
         sodipodi:role="line"
         id="tspan217-1-7"
         style="stroke-width:8"
         x="7552.5977"
         y="-3946.1216">t</tspan></text>
    <text
       xml:space="preserve"
       style="font-size:240px;fill:#000000;fill-opacity:1;stroke:#000000;stroke-width:8.00002;stroke-miterlimit:3.8;stroke-dasharray:none;stroke-opacity:1"
       x="7552.5977"
       y="-2546.2085"
       id="text217-9-0"
       transform="scale(1,-1)"><tspan
         sodipodi:role="line"
         id="tspan217-1-9"
         style="stroke-width:8"
         x="7552.5977"
         y="-2546.2085">t</tspan></text>
    <text
       xml:space="preserve"
       style="font-size:240px;fill:#000000;fill-opacity:1;stroke:#000000;stroke-width:8.00002;stroke-miterlimit:3.8;stroke-dasharray:none;stroke-opacity:1"
       x="7602.5547"
       y="-749.9845"
       id="text217-9-3"
       transform="scale(1,-1)"><tspan
         sodipodi:role="line"
         id="tspan217-1-6"
         style="stroke-width:8"
         x="7602.5547"
         y="-749.9845">t</tspan></text>
  </g>
</svg>
