<svg class="main-svg" xmlns="http://www.w3.org/2000/svg" xmlns:xlink="http://www.w3.org/1999/xlink" width="800" height="400" style="" viewBox="0 0 800 400"><rect x="0" y="0" width="800" height="400" style="fill: rgb(255, 255, 255); fill-opacity: 1;"/><defs id="defs-5e9d9e"><g class="clips"><clipPath id="clip5e9d9exyplot" class="plotclip"><rect width="690" height="188.1"/></clipPath><clipPath id="clip5e9d9exy2plot" class="plotclip"><rect width="690" height="188.1"/></clipPath><clipPath class="axesclip" id="clip5e9d9ex"><rect x="100" y="0" width="690" height="400"/></clipPath><clipPath class="axesclip" id="clip5e9d9ey"><rect x="0" y="10" width="800" height="188.1"/></clipPath><clipPath class="axesclip" id="clip5e9d9exy"><rect x="100" y="10" width="690" height="188.1"/></clipPath><clipPath class="axesclip" id="clip5e9d9ey2"><rect x="0" y="201.9" width="800" height="188.1"/></clipPath><clipPath class="axesclip" id="clip5e9d9exy2"><rect x="100" y="201.9" width="690" height="188.1"/></clipPath></g><g class="gradients"/><g class="patterns"/></defs><g class="bglayer"/><g class="layer-below"><g class="imagelayer"/><g class="shapelayer"/></g><g class="cartesianlayer"><g class="subplot xy"><g class="layer-subplot"><g class="shapelayer"/><g class="imagelayer"/></g><g class="minor-gridlayer"><g class="x"/><g class="y"/></g><g class="gridlayer"><g class="x"/><g class="y"/></g><g class="zerolinelayer"><path class="xzl zl crisp" transform="translate(100,0)" d="M0,10v188.1" style="stroke: rgb(255, 255, 255); stroke-opacity: 1; stroke-width: 2px;"/><path class="yzl zl crisp" transform="translate(0,188.7)" d="M100,0h690" style="stroke: rgb(255, 255, 255); stroke-opacity: 1; stroke-width: 2px;"/></g><path class="xlines-below"/><path class="ylines-below"/><g class="overlines-below"/><g class="xaxislayer-below"/><g class="yaxislayer-below"/><g class="overaxes-below"/><g class="plot" transform="translate(100,10)" clip-path="url(#clip5e9d9exyplot)"><g class="scatterlayer mlayer"><g class="trace scatter traceb2cd60" style="stroke-miterlimit: 2; opacity: 0;"><g class="fills"/><g class="errorbars"/><g class="lines"><path class="js-line" style="vector-effect: non-scaling-stroke; fill: none; stroke: rgb(0, 0, 0); stroke-opacity: 1; stroke-width: 2px; opacity: 1;" d="M0,178.7L229.54,9.74L230.92,178.02L459.08,10.08L460.46,178.36L688.62,10.42L690,178.7"/></g><g class="points"/><g class="text"/></g><g class="trace scatter trace969484" style="stroke-miterlimit: 2; opacity: 0;"><g class="fills"/><g class="errorbars"/><g class="lines"><path class="js-line" style="vector-effect: non-scaling-stroke; fill: none; stroke: rgb(0, 0, 0); stroke-opacity: 1; stroke-dasharray: 9px, 9px; stroke-width: 1px; opacity: 1;" d="M0,43.26L690,43.26"/></g><g class="points"/><g class="text"/></g><g class="trace scatter trace82f21d" style="stroke-miterlimit: 2; opacity: 1;"><g class="fills"/><g class="errorbars"/><g class="lines"><path class="js-line" style="vector-effect: non-scaling-stroke; fill: none; stroke: rgb(0, 0, 0); stroke-opacity: 1; stroke-width: 2px; opacity: 1;" d="M0,178.7L5.53,178.7L6.91,9.41L176.99,9.41L178.38,178.7L235.07,178.7L236.45,9.41L407.92,9.41L409.3,178.7L464.61,178.7L465.99,9.41L637.45,9.41L638.84,178.7L690,178.7"/></g><g class="points"/><g class="text"/></g><g class="trace scatter trace5f60ef" style="stroke-miterlimit: 2; opacity: 1;"><g class="fills"/><g class="errorbars"/><g class="lines"><path class="js-line" style="vector-effect: non-scaling-stroke; fill: none; stroke: rgb(0, 0, 0); stroke-opacity: 1; stroke-dasharray: 3px, 3px; stroke-width: 2px; opacity: 1;" d="M0,178.7L189.44,178.7L190.82,9.41L224.01,9.41L225.39,178.7L418.98,178.7L420.36,9.41L453.55,9.41L454.93,178.7L648.52,178.7L649.9,9.41L683.09,9.41L684.47,178.7L690,178.7"/></g><g class="points"/><g class="text"/></g></g></g><g class="overplot"/><path class="xlines-above crisp" style="fill: none;" d="M0,0"/><path class="ylines-above crisp" style="fill: none;" d="M0,0"/><g class="overlines-above"/><g class="xaxislayer-above"/><g class="yaxislayer-above"/><g class="overaxes-above"/></g><g class="subplot xy2"><g class="layer-subplot"><g class="shapelayer"/><g class="imagelayer"/></g><g class="minor-gridlayer"><g class="x"/><g class="y2"/></g><g class="gridlayer"><g class="x"/><g class="y2"/></g><g class="zerolinelayer"><path class="xzl zl crisp" transform="translate(100,0)" d="M0,201.9v188.1" style="stroke: rgb(255, 255, 255); stroke-opacity: 1; stroke-width: 2px;"/><path class="y2zl zl crisp" transform="translate(0,380.6)" d="M100,0h690" style="stroke: rgb(255, 255, 255); stroke-opacity: 1; stroke-width: 2px;"/></g><path class="xlines-below"/><path class="ylines-below"/><g class="overlines-below"/><g class="xaxislayer-below"/><g class="yaxislayer-below"/><g class="overaxes-below"/><g class="plot" transform="translate(100,201.9)" clip-path="url(#clip5e9d9exy2plot)"><g class="scatterlayer mlayer"><g class="trace scatter trace80b9e2" style="stroke-miterlimit: 2; opacity: 0;"><g class="fills"/><g class="errorbars"/><g class="lines"><path class="js-line" style="vector-effect: non-scaling-stroke; fill: none; stroke: rgb(0, 0, 0); stroke-opacity: 1; stroke-width: 2px; opacity: 1;" d="M0,144.84L183.91,9.47L185.29,177.75L413.45,9.81L414.83,178.08L637.45,14.22L638.84,13.2L642.99,10.15L644.37,178.42L690,144.84"/></g><g class="points"/><g class="text"/></g><g class="trace scatter trace9559d2" style="stroke-miterlimit: 2; opacity: 0;"><g class="fills"/><g class="errorbars"/><g class="lines"><path class="js-line" style="vector-effect: non-scaling-stroke; fill: none; stroke: rgb(0, 0, 0); stroke-opacity: 1; stroke-dasharray: 9px, 9px; stroke-width: 1px; opacity: 1;" d="M0,43.26L690,43.26"/></g><g class="points"/><g class="text"/></g><g class="trace scatter trace0d4571" style="stroke-miterlimit: 2; opacity: 1;"><g class="fills"/><g class="errorbars"/><g class="lines"><path class="js-line" style="vector-effect: non-scaling-stroke; fill: none; stroke: rgb(0, 0, 0); stroke-opacity: 1; stroke-width: 2px; opacity: 1;" d="M0,9.41L131.36,9.41L132.75,178.7L189.44,178.7L190.82,9.41L360.9,9.41L362.28,178.7L418.98,178.7L420.36,9.41L591.82,9.41L593.21,178.7L648.52,178.7L649.9,9.41L690,9.41"/></g><g class="points"/><g class="text"/></g><g class="trace scatter trace13d957" style="stroke-miterlimit: 2; opacity: 1;"><g class="fills"/><g class="errorbars"/><g class="lines"><path class="js-line" style="vector-effect: non-scaling-stroke; fill: none; stroke: rgb(0, 0, 0); stroke-opacity: 1; stroke-dasharray: 3px, 3px; stroke-width: 2px; opacity: 1;" d="M0,178.7L142.42,178.7L143.81,9.41L176.99,9.41L178.38,178.7L373.35,178.7L374.73,9.41L407.92,9.41L409.3,178.7L602.89,178.7L604.27,9.41L637.45,9.41L638.84,178.7L690,178.7"/></g><g class="points"/><g class="text"/></g></g></g><g class="overplot"/><path class="xlines-above crisp" style="fill: none;" d="M0,0"/><path class="ylines-above crisp" style="fill: none;" d="M0,0"/><g class="overlines-above"/><g class="xaxislayer-above"/><g class="yaxislayer-above"/><g class="overaxes-above"/></g></g><g class="polarlayer"/><g class="smithlayer"/><g class="ternarylayer"/><g class="geolayer"/><g class="funnelarealayer"/><g class="pielayer"/><g class="iciclelayer"/><g class="treemaplayer"/><g class="sunburstlayer"/><g class="glimages"/><defs id="topdefs-5e9d9e"><g class="clips"/></defs><g class="layer-above"><g class="imagelayer"/><g class="shapelayer"/></g><g class="infolayer"><g class="g-gtitle"/><g class="g-xtitle"/><g class="g-ytitle"/><g class="g-y2title"/><g class="annotation" data-index="0" style="opacity: 0;"><g class="annotation-text-g" transform="rotate(0,47.2,104.05)"><g class="cursor-pointer" transform="translate(17,85)"><rect class="bg" style="stroke-width: 1px; stroke: rgb(0, 0, 0); stroke-opacity: 0; fill: rgb(0, 0, 0); fill-opacity: 0;" x="0.5" y="0.5" width="59" height="37"/><text class="annotation-text" style="font-family: TOBESTRIPPEDOpen SansTOBESTRIPPED, verdana, arial, sans-serif; font-size: 12px; fill: rgb(0, 0, 0); fill-opacity: 1; white-space: pre;" text-anchor="start" x="3" y="16"><tspan class="line" dy="0em" x="3" y="16">Carrier A</tspan><tspan class="line" dy="1.3em" x="3" y="16">Duty A</tspan></text></g></g></g><g class="annotation" data-index="1" style="opacity: 1;"><g class="annotation-text-g" transform="rotate(0,57.2,154.84)"><g class="cursor-pointer" transform="translate(17,136)"><rect class="bg" style="stroke-width: 1px; stroke: rgb(0, 0, 0); stroke-opacity: 0; fill: rgb(0, 0, 0); fill-opacity: 0;" x="0.5" y="0.5" width="79" height="37"/><text class="annotation-text" style="font-family: TOBESTRIPPEDOpen SansTOBESTRIPPED, verdana, arial, sans-serif; font-size: 12px; fill: rgb(0, 0, 0); fill-opacity: 1; white-space: pre;" text-anchor="start" x="3" y="16"><tspan class="line" dy="0em" x="3" y="16"><tspan style="font-weight:bold">PWM CHA1</tspan></tspan><tspan class="line" dy="1.3em" x="3" y="16">PWM CHA2</tspan><tspan class="line" dy="2.6em" x="3" y="16"></tspan></text></g></g></g><g class="annotation" data-index="2" style="opacity: 0;"><g class="annotation-text-g" transform="rotate(0,47.2,295.95)"><g class="cursor-pointer" transform="translate(17,277)"><rect class="bg" style="stroke-width: 1px; stroke: rgb(0, 0, 0); stroke-opacity: 0; fill: rgb(0, 0, 0); fill-opacity: 0;" x="0.5" y="0.5" width="59" height="37"/><text class="annotation-text" style="font-family: TOBESTRIPPEDOpen SansTOBESTRIPPED, verdana, arial, sans-serif; font-size: 12px; fill: rgb(0, 0, 0); fill-opacity: 1; white-space: pre;" text-anchor="start" x="3" y="16"><tspan class="line" dy="0em" x="3" y="16">Carrier C</tspan><tspan class="line" dy="1.3em" x="3" y="16">Duty C</tspan></text></g></g></g><g class="annotation" data-index="3" style="opacity: 1;"><g class="annotation-text-g" transform="rotate(0,57.2,333.38)"><g class="cursor-pointer" transform="translate(17,314)"><rect class="bg" style="stroke-width: 1px; stroke: rgb(0, 0, 0); stroke-opacity: 0; fill: rgb(0, 0, 0); fill-opacity: 0;" x="0.5" y="0.5" width="79" height="37"/><text class="annotation-text" style="font-family: TOBESTRIPPEDOpen SansTOBESTRIPPED, verdana, arial, sans-serif; font-size: 12px; fill: rgb(0, 0, 0); fill-opacity: 1; white-space: pre;" text-anchor="start" x="3" y="16"><tspan class="line" dy="0em" x="3" y="16"><tspan style="font-weight:bold">PWM CHC1</tspan></tspan><tspan class="line" dy="1.3em" x="3" y="16">PWM CHC2</tspan><tspan class="line" dy="2.6em" x="3" y="16"></tspan></text></g></g></g></g></svg>