<svg class="main-svg" xmlns="http://www.w3.org/2000/svg" xmlns:xlink="http://www.w3.org/1999/xlink" width="800" height="400" style="" viewBox="0 0 800 400"><rect x="0" y="0" width="800" height="400" style="fill: rgb(255, 255, 255); fill-opacity: 1;"/><defs id="defs-d233eb"><g class="clips"><clipPath id="clipd233ebxyplot" class="plotclip"><rect width="690" height="124.13333333333333"/></clipPath><clipPath id="clipd233ebxy2plot" class="plotclip"><rect width="690" height="124.13333333333333"/></clipPath><clipPath id="clipd233ebxy3plot" class="plotclip"><rect width="690" height="124.13333333333333"/></clipPath><clipPath class="axesclip" id="clipd233ebx"><rect x="100" y="0" width="690" height="400"/></clipPath><clipPath class="axesclip" id="clipd233eby"><rect x="0" y="10" width="800" height="124.13333333333333"/></clipPath><clipPath class="axesclip" id="clipd233ebxy"><rect x="100" y="10" width="690" height="124.13333333333333"/></clipPath><clipPath class="axesclip" id="clipd233eby2"><rect x="0" y="137.93333333333334" width="800" height="124.13333333333333"/></clipPath><clipPath class="axesclip" id="clipd233ebxy2"><rect x="100" y="137.93333333333334" width="690" height="124.13333333333333"/></clipPath><clipPath class="axesclip" id="clipd233eby3"><rect x="0" y="265.8666666666667" width="800" height="124.13333333333333"/></clipPath><clipPath class="axesclip" id="clipd233ebxy3"><rect x="100" y="265.8666666666667" width="690" height="124.13333333333333"/></clipPath></g><g class="gradients"/><g class="patterns"/></defs><g class="bglayer"/><g class="layer-below"><g class="imagelayer"/><g class="shapelayer"/></g><g class="cartesianlayer"><g class="subplot xy"><g class="layer-subplot"><g class="shapelayer"/><g class="imagelayer"/></g><g class="minor-gridlayer"><g class="x"/><g class="y"/></g><g class="gridlayer"><g class="x"/><g class="y"/></g><g class="zerolinelayer"><path class="xzl zl crisp" transform="translate(100,0)" d="M0,10v124.13333333333333" style="stroke: rgb(255, 255, 255); stroke-opacity: 1; stroke-width: 2px;"/><path class="yzl zl crisp" transform="translate(0,127.93)" d="M100,0h690" style="stroke: rgb(255, 255, 255); stroke-opacity: 1; stroke-width: 2px;"/></g><path class="xlines-below"/><path class="ylines-below"/><g class="overlines-below"/><g class="xaxislayer-below"/><g class="yaxislayer-below"/><g class="overaxes-below"/><g class="plot" transform="translate(100,10)" clip-path="url(#clipd233ebxyplot)"><g class="scatterlayer mlayer"><g class="trace scatter trace09288d" style="stroke-miterlimit: 2; opacity: 1;"><g class="fills"/><g class="errorbars"/><g class="lines"><path class="js-line" style="vector-effect: non-scaling-stroke; fill: none; stroke: rgb(0, 0, 0); stroke-opacity: 1; stroke-width: 2px; opacity: 1;" d="M0,117.93L114.77,6.21L116.15,116.8L228.16,7.78L229.54,6.43L230.92,117.03L232.3,115.68L344.31,6.66L345.69,117.25L459.08,6.88L460.46,117.48L573.85,7.1L575.23,117.7L688.62,7.33L690,117.93"/></g><g class="points"/><g class="text"/></g></g></g><g class="overplot"/><path class="xlines-above crisp" style="fill: none;" d="M0,0"/><path class="ylines-above crisp" style="fill: none;" d="M0,0"/><g class="overlines-above"/><g class="xaxislayer-above"/><g class="yaxislayer-above"/><g class="overaxes-above"/></g><g class="subplot xy2"><g class="layer-subplot"><g class="shapelayer"/><g class="imagelayer"/></g><g class="minor-gridlayer"><g class="x"/><g class="y2"/></g><g class="gridlayer"><g class="x"/><g class="y2"/></g><g class="zerolinelayer"><path class="xzl zl crisp" transform="translate(100,0)" d="M0,137.93333333333334v124.13333333333333" style="stroke: rgb(255, 255, 255); stroke-opacity: 1; stroke-width: 2px;"/><path class="y2zl zl crisp" transform="translate(0,255.86333333333334)" d="M100,0h690" style="stroke: rgb(255, 255, 255); stroke-opacity: 1; stroke-width: 2px;"/></g><path class="xlines-below"/><path class="ylines-below"/><g class="overlines-below"/><g class="xaxislayer-below"/><g class="yaxislayer-below"/><g class="overaxes-below"/><g class="plot" transform="translate(100,137.93333333333334)" clip-path="url(#clipd233ebxy2plot)"><g class="scatterlayer mlayer"><g class="trace scatter trace699896" style="stroke-miterlimit: 2; opacity: 1;"><g class="fills"/><g class="errorbars"/><g class="lines"><path class="js-line" style="vector-effect: non-scaling-stroke; fill: none; stroke: rgb(0, 0, 0); stroke-opacity: 1; stroke-width: 2px; opacity: 1;" d="M0,117.93L114.77,6.21L116.15,116.8L228.16,7.78L229.54,6.43L230.92,117.03L232.3,115.68L344.31,6.66L345.69,117.25L459.08,6.88L460.46,117.48L573.85,7.1L575.23,117.7L688.62,7.33L690,117.93"/></g><g class="points"/><g class="text"/></g><g class="trace scatter trace9f11b6" style="stroke-miterlimit: 2; opacity: 1;"><g class="fills"/><g class="errorbars"/><g class="lines"><path class="js-line" style="vector-effect: non-scaling-stroke; fill: none; stroke: rgb(0, 0, 0); stroke-opacity: 1; stroke-width: 1px; opacity: 1; stroke-dasharray: 9px, 9px;" d="M0,61.95L690,61.95"/></g><g class="points"/><g class="text"/></g><g class="trace scatter trace4ac75c" style="stroke-miterlimit: 2; opacity: 1;"><g class="fills"/><g class="errorbars"/><g class="lines"><path class="js-line" style="vector-effect: non-scaling-stroke; fill: none; stroke: rgb(0, 0, 0); stroke-opacity: 1; stroke-width: 1px; opacity: 1; stroke-dasharray: 3px, 3px;" d="M0,61.95L690,61.95"/></g><g class="points"/><g class="text"/></g></g></g><g class="overplot"/><path class="xlines-above crisp" style="fill: none;" d="M0,0"/><path class="ylines-above crisp" style="fill: none;" d="M0,0"/><g class="overlines-above"/><g class="xaxislayer-above"/><g class="yaxislayer-above"/><g class="overaxes-above"/></g><g class="subplot xy3"><g class="layer-subplot"><g class="shapelayer"/><g class="imagelayer"/></g><g class="minor-gridlayer"><g class="x"/><g class="y3"/></g><g class="gridlayer"><g class="x"/><g class="y3"/></g><g class="zerolinelayer"><path class="xzl zl crisp" transform="translate(100,0)" d="M0,265.8666666666667v124.13333333333333" style="stroke: rgb(255, 255, 255); stroke-opacity: 1; stroke-width: 2px;"/><path class="y3zl zl crisp" transform="translate(0,383.7966666666667)" d="M100,0h690" style="stroke: rgb(255, 255, 255); stroke-opacity: 1; stroke-width: 2px;"/></g><path class="xlines-below"/><path class="ylines-below"/><g class="overlines-below"/><g class="xaxislayer-below"/><g class="yaxislayer-below"/><g class="overaxes-below"/><g class="plot" transform="translate(100,265.8666666666667)" clip-path="url(#clipd233ebxy3plot)"><g class="scatterlayer mlayer"><g class="trace scatter tracecf3370" style="stroke-miterlimit: 2; opacity: 1;"><g class="fills"/><g class="errorbars"/><g class="lines"><path class="js-line" style="vector-effect: non-scaling-stroke; fill: none; stroke: rgb(0, 0, 0); stroke-opacity: 1; stroke-width: 2px; opacity: 1;" d="M0,117.93L2.77,117.93L4.15,6.21L53.93,6.21L55.31,117.93L117.54,117.93L118.92,6.21L168.7,6.21L170.08,117.93L232.3,117.93L233.69,6.21L283.47,6.21L284.85,117.93L347.07,117.93L348.46,6.21L399.62,6.21L401,117.93L461.84,117.93L463.23,6.21L514.39,6.21L515.77,117.93L576.61,117.93L578,6.21L629.16,6.21L630.54,117.93L690,117.93"/></g><g class="points"/><g class="text"/></g><g class="trace scatter trace6aa2fc" style="stroke-miterlimit: 2; opacity: 1;"><g class="fills"/><g class="errorbars"/><g class="lines"><path class="js-line" style="vector-effect: non-scaling-stroke; fill: none; stroke: rgb(0, 0, 0); stroke-opacity: 1; stroke-width: 2px; opacity: 1; stroke-dasharray: 3px, 3px;" d="M0,117.93L59.46,117.93L60.84,6.21L112,6.21L113.39,117.93L174.23,117.93L175.61,6.21L226.77,6.21L228.16,117.93L289,117.93L290.38,6.21L341.54,6.21L342.93,117.93L405.15,117.93L406.53,6.21L456.31,6.21L457.7,117.93L519.92,117.93L521.3,6.21L571.08,6.21L572.46,117.93L634.69,117.93L636.07,6.21L685.85,6.21L687.23,117.93L690,117.93"/></g><g class="points"/><g class="text"/></g></g></g><g class="overplot"/><path class="xlines-above crisp" style="fill: none;" d="M0,0"/><path class="ylines-above crisp" style="fill: none;" d="M0,0"/><g class="overlines-above"/><g class="xaxislayer-above"/><g class="yaxislayer-above"/><g class="overaxes-above"/></g></g><g class="polarlayer"/><g class="smithlayer"/><g class="ternarylayer"/><g class="geolayer"/><g class="funnelarealayer"/><g class="pielayer"/><g class="iciclelayer"/><g class="treemaplayer"/><g class="sunburstlayer"/><g class="glimages"/><defs id="topdefs-d233eb"><g class="clips"/></defs><g class="layer-above"><g class="imagelayer"/><g class="shapelayer"><path data-index="0" fill-rule="evenodd" d="M156.69,262.06666666666666H166.95999999999998V138.18209752839013H156.69Z" style="opacity: 0.2; stroke: rgb(42, 63, 95); stroke-opacity: 1; fill: rgb(95, 70, 144); fill-opacity: 1; stroke-width: 2px;" clip-path="url(#clipd233ebx)"/><path data-index="1" fill-rule="evenodd" d="M166.95999999999998,262.06666666666666H177.23000000000002V138.18209752839013H166.95999999999998Z" style="opacity: 0.2; stroke: rgb(42, 63, 95); stroke-opacity: 1; fill: rgb(29, 105, 150); fill-opacity: 1; stroke-width: 2px;" clip-path="url(#clipd233ebx)"/><path data-index="2" fill-rule="evenodd" d="M177.23000000000002,262.06666666666666H187.5V138.18209752839013H177.23000000000002Z" style="opacity: 0.2; stroke: rgb(42, 63, 95); stroke-opacity: 1; fill: rgb(56, 166, 165); fill-opacity: 1; stroke-width: 2px;" clip-path="url(#clipd233ebx)"/><path data-index="3" fill-rule="evenodd" d="M617.15,262.06666666666666H627.42V138.18209752839013H617.15Z" style="opacity: 0.2; stroke: rgb(42, 63, 95); stroke-opacity: 1; fill: rgb(95, 70, 144); fill-opacity: 1; stroke-width: 2px;" clip-path="url(#clipd233ebx)"/><path data-index="4" fill-rule="evenodd" d="M627.42,262.06666666666666H637.69V138.18209752839013H627.42Z" style="opacity: 0.2; stroke: rgb(42, 63, 95); stroke-opacity: 1; fill: rgb(29, 105, 150); fill-opacity: 1; stroke-width: 2px;" clip-path="url(#clipd233ebx)"/><path data-index="5" fill-rule="evenodd" d="M637.69,262.06666666666666H647.96V138.18209752839013H637.69Z" style="opacity: 0.2; stroke: rgb(42, 63, 95); stroke-opacity: 1; fill: rgb(56, 166, 165); fill-opacity: 1; stroke-width: 2px;" clip-path="url(#clipd233ebx)"/></g></g><g class="infolayer"><g class="g-gtitle"/><g class="g-xtitle"/><g class="g-ytitle"/><g class="g-y2title"/><g class="g-y3title"/><g class="annotation" data-index="0" style="opacity: 1;"><g class="annotation-text-g" transform="rotate(0,60.2,71.95)"><g class="cursor-pointer" transform="translate(17,37)"><rect class="bg" style="stroke-width: 1px; stroke: rgb(0, 0, 0); stroke-opacity: 0; fill: rgb(0, 0, 0); fill-opacity: 0;" x="0.5" y="0.5" width="85" height="68"/><text class="annotation-text" style="font-family: TOBESTRIPPEDOpen SansTOBESTRIPPED, verdana, arial, sans-serif; font-size: 12px; fill: rgb(0, 0, 0); fill-opacity: 1; white-space: pre;" text-anchor="start" x="3" y="16"><tspan class="line" dy="0em" x="3" y="16">Master</tspan><tspan class="line" dy="1.3em" x="3" y="16">Phase shift C</tspan><tspan class="line" dy="2.6em" x="3" y="16">Phase shift D</tspan><tspan class="line" dy="3.9000000000000004em" x="3" y="16">Phase Shift E</tspan></text></g></g></g><g class="annotation" data-index="1" style="opacity: 1;"><g class="annotation-text-g" transform="rotate(0,47.2,200)"><g class="cursor-pointer" transform="translate(17,181)"><rect class="bg" style="stroke-width: 1px; stroke: rgb(0, 0, 0); stroke-opacity: 0; fill: rgb(0, 0, 0); fill-opacity: 0;" x="0.5" y="0.5" width="59" height="37"/><text class="annotation-text" style="font-family: TOBESTRIPPEDOpen SansTOBESTRIPPED, verdana, arial, sans-serif; font-size: 12px; fill: rgb(0, 0, 0); fill-opacity: 1; white-space: pre;" text-anchor="start" x="3" y="16"><tspan class="line" dy="0em" x="3" y="16">Carrier A</tspan><tspan class="line" dy="1.3em" x="3" y="16">Duty A</tspan></text></g></g></g><g class="annotation" data-index="2" style="opacity: 1;"><g class="annotation-text-g" transform="rotate(0,57.2,327.93333333333334)"><g class="cursor-pointer" transform="translate(17,309)"><rect class="bg" style="stroke-width: 1px; stroke: rgb(0, 0, 0); stroke-opacity: 0; fill: rgb(0, 0, 0); fill-opacity: 0;" x="0.5" y="0.5" width="79" height="37"/><text class="annotation-text" style="font-family: TOBESTRIPPEDOpen SansTOBESTRIPPED, verdana, arial, sans-serif; font-size: 12px; fill: rgb(0, 0, 0); fill-opacity: 1; white-space: pre;" text-anchor="start" x="3" y="16"><tspan class="line" dy="0em" x="3" y="16"><tspan style="font-weight:bold">PWM CHA1</tspan></tspan><tspan class="line" dy="1.3em" x="3" y="16">PWM CHA2</tspan><tspan class="line" dy="2.6em" x="3" y="16"></tspan></text></g></g></g></g></svg>